<svg width="14" height="14" viewBox="0 0 14 14" fill="none" xmlns="http://www.w3.org/2000/svg">
<path fill-rule="evenodd" clip-rule="evenodd" d="M9.91666 4.95833H10.5C11.1417 4.95833 11.6667 5.48333 11.6667 6.125V11.9583C11.6667 12.6 11.1417 13.125 10.5 13.125H3.49999C2.85833 13.125 2.33333 12.6 2.33333 11.9583V6.125C2.33333 5.48333 2.85833 4.95833 3.49999 4.95833H4.08333V3.79167C4.08333 2.18167 5.38999 0.875 6.99999 0.875C8.60999 0.875 9.91666 2.18167 9.91666 3.79167V4.95833ZM6.99999 2.04167C6.03166 2.04167 5.24999 2.82333 5.24999 3.79167V4.95833H8.74999V3.79167C8.74999 2.82333 7.96833 2.04167 6.99999 2.04167ZM3.49999 11.9583V6.125H10.5V11.9583H3.49999ZM8.16666 9.04167C8.16666 9.68333 7.64166 10.2083 6.99999 10.2083C6.35833 10.2083 5.83333 9.68333 5.83333 9.04167C5.83333 8.4 6.35833 7.875 6.99999 7.875C7.64166 7.875 8.16666 8.4 8.16666 9.04167Z" fill="#8692A6"/>
</svg>
