<svg width="114" height="80" viewBox="0 0 114 80" fill="none" xmlns="http://www.w3.org/2000/svg">
<g filter="url(#filter0_ddd)">
<path fill-rule="evenodd" clip-rule="evenodd" d="M37.8467 10.0637C37.7391 10.1113 37.3541 10.1533 36.991 10.1571C36.6207 10.1609 36.3308 10.2068 36.3308 10.2615C36.3308 10.3151 36.1139 10.359 35.8488 10.359C35.5508 10.359 35.3108 10.4148 35.2201 10.5054C35.1394 10.5858 34.9351 10.6517 34.766 10.6517C34.5969 10.6517 34.3926 10.7175 34.312 10.798C34.2313 10.8785 34.0525 10.9443 33.9147 10.9443C33.579 10.9443 32.9078 11.1497 32.9078 11.2524C32.9078 11.2975 32.7805 11.3345 32.6249 11.3345C32.4636 11.3345 32.3177 11.3974 32.2856 11.4808C32.2547 11.5613 32.14 11.6271 32.0307 11.6271C31.9214 11.6271 31.8321 11.671 31.8321 11.7247C31.8321 11.7783 31.7655 11.8222 31.684 11.8222C31.6026 11.8222 31.4595 11.8612 31.3661 11.9089C31.2727 11.9566 31.0215 12.0774 30.8078 12.1772C30.4344 12.3517 30.3024 12.4343 30.0438 12.6555C29.9785 12.7114 29.7709 12.8193 29.5827 12.8952C29.3944 12.9712 29.1869 13.0791 29.1215 13.135C28.7746 13.4317 28.7022 13.4805 28.6088 13.4805C28.5527 13.4805 28.5069 13.5175 28.5069 13.5628C28.5069 13.6079 28.3528 13.7276 28.1646 13.8288C27.9763 13.9299 27.8223 14.0465 27.8223 14.0879C27.8223 14.1294 27.7563 14.1633 27.6756 14.1633C27.5949 14.1633 27.5289 14.2104 27.5289 14.2678C27.5289 14.3799 27.2887 14.6511 27.1894 14.6511C27.1223 14.6511 26.9863 14.7599 26.5187 15.1876C26.3427 15.3485 26.0799 15.5674 25.9347 15.6741C25.7895 15.7807 25.6707 15.9048 25.6707 15.95C25.6707 15.9951 25.5056 16.2035 25.3039 16.4132C24.6512 17.0916 24.4971 17.2761 24.4971 17.3789C24.4971 17.4345 24.4311 17.4799 24.3504 17.4799C24.2697 17.4799 24.2037 17.5458 24.2037 17.6262C24.2037 17.7067 24.1625 17.7726 24.1123 17.7726C24.0619 17.7726 23.9651 17.9262 23.897 18.114C23.8289 18.3018 23.7161 18.4554 23.6461 18.4554C23.5763 18.4554 23.5191 18.5107 23.5191 18.5783C23.5191 18.6459 23.4091 18.8196 23.2746 18.9643C23.1401 19.1089 23.0301 19.2736 23.0301 19.3304C23.0301 19.4895 22.7654 19.9254 22.4678 20.2564C22.4005 20.3312 22.3455 20.431 22.3455 20.4781C22.3455 20.5252 22.1916 20.8686 22.0035 21.241C21.8154 21.6136 21.6614 21.9678 21.6612 22.0283C21.661 22.0888 21.5949 22.1929 21.5142 22.2597C21.4335 22.3265 21.3675 22.5075 21.3675 22.6618C21.3675 22.8162 21.3235 22.9425 21.2697 22.9425C21.2159 22.9425 21.1719 23.0962 21.1719 23.2839C21.1719 23.4717 21.1279 23.6254 21.0741 23.6254C21.0203 23.6254 20.9763 23.7267 20.9763 23.8506C20.9763 23.9745 20.9117 24.161 20.8327 24.2652C20.7537 24.3693 20.6877 24.5684 20.6861 24.7077C20.6843 24.847 20.6212 25.0885 20.5457 25.2442C20.4702 25.4 20.3536 26.0652 20.2867 26.7225C20.2197 27.3797 20.1274 27.9174 20.0816 27.9174C19.971 27.9174 19.9737 32.0852 20.0843 32.1534C20.1315 32.1825 20.2241 32.7228 20.2901 33.3541C20.356 33.9853 20.4713 34.6293 20.5464 34.7851C20.6215 34.9409 20.6829 35.1963 20.6829 35.3529C20.6829 35.5095 20.7489 35.7034 20.8296 35.7839C20.9103 35.8643 20.9763 36.0368 20.9763 36.167C20.9763 36.2973 21.0203 36.404 21.0741 36.404C21.1279 36.404 21.1719 36.5576 21.1719 36.7454C21.1719 36.9332 21.2159 37.0868 21.2697 37.0868C21.3235 37.0868 21.3675 37.2198 21.3675 37.3825C21.3675 37.5553 21.4284 37.7015 21.5142 37.7343C21.5949 37.7652 21.6609 37.8955 21.6609 38.0239C21.6609 38.1523 21.7049 38.2573 21.7587 38.2573C21.8125 38.2573 21.8565 38.3014 21.8565 38.3554C21.8565 38.4093 21.9665 38.6809 22.101 38.9589C22.2355 39.2369 22.3455 39.522 22.3455 39.5925C22.3455 39.6629 22.3866 39.7205 22.4368 39.7205C22.4869 39.7205 22.5592 39.8193 22.5974 39.94C22.6356 40.0608 22.7486 40.2305 22.8485 40.3172C22.9483 40.4041 23.0301 40.5498 23.0301 40.6413C23.0301 40.7327 23.0851 40.8687 23.1524 40.9435C23.4426 41.2663 23.5191 41.3766 23.5191 41.4723C23.5191 41.5282 23.5803 41.5739 23.6552 41.5739C23.7301 41.5739 23.8187 41.6828 23.8522 41.8158C23.8857 41.9489 24.0445 42.1918 24.2051 42.3557C24.3657 42.5195 24.4971 42.6721 24.4971 42.6946C24.4971 42.7172 24.5962 42.8432 24.7171 42.9746C25.0761 43.3645 25.1817 43.5108 25.1817 43.6183C25.1817 43.6742 25.2277 43.72 25.2839 43.72C25.4167 43.72 25.8663 44.1684 25.8663 44.3008C25.8663 44.3569 25.9155 44.4028 25.9756 44.4028C26.0357 44.4028 26.2553 44.5674 26.4636 44.7686C26.9555 45.2438 27.1158 45.3782 27.1906 45.3782C27.2242 45.3782 27.4013 45.5319 27.5842 45.7197C27.767 45.9074 27.9509 46.0611 27.9927 46.0611C28.0345 46.0611 28.1875 46.1708 28.3325 46.3049C28.4774 46.4391 28.642 46.5488 28.6982 46.5488C28.7543 46.5488 28.8003 46.5927 28.8003 46.6463C28.8003 46.7 28.8883 46.7439 28.9959 46.7439C29.1045 46.7439 29.1915 46.809 29.1915 46.8902C29.1915 46.9707 29.2575 47.0365 29.3382 47.0365C29.4189 47.0365 29.4849 47.0745 29.4849 47.1208C29.4849 47.1672 29.6829 47.2806 29.925 47.3728C30.167 47.465 30.3651 47.5807 30.3651 47.6299C30.3651 47.6791 30.4704 47.7194 30.5991 47.7194C30.7278 47.7194 30.8585 47.7852 30.8895 47.8657C30.9204 47.9462 31.0351 48.012 31.1444 48.012C31.2537 48.012 31.3431 48.0559 31.3431 48.1095C31.3431 48.1632 31.4531 48.2071 31.5876 48.2071C31.722 48.2071 31.8321 48.251 31.8321 48.3046C31.8321 48.3583 31.9232 48.4022 32.0346 48.4022C32.1461 48.4022 32.3033 48.468 32.3839 48.5485C32.4646 48.629 32.6155 48.6948 32.7192 48.6948C32.823 48.6948 32.9078 48.7338 32.9078 48.7815C32.9078 48.8292 33.2049 48.9427 33.568 49.0337C33.9311 49.1247 34.3045 49.2393 34.3979 49.2884C34.4913 49.3375 34.7004 49.3777 34.8625 49.3777C35.0246 49.3777 35.1572 49.4159 35.1572 49.4626C35.1572 49.5093 35.4213 49.5773 35.744 49.6137C36.0668 49.6502 36.3308 49.7155 36.3308 49.7588C36.3308 49.8977 37.8867 50 39.9983 50C42.1099 50 43.6658 49.8977 43.6658 49.7588C43.6658 49.7155 43.9298 49.6502 44.2526 49.6137C44.5753 49.5773 44.8394 49.5093 44.8394 49.4626C44.8394 49.4159 44.972 49.3777 45.1341 49.3777C45.2962 49.3777 45.5053 49.3379 45.5987 49.2893C45.6921 49.2407 46.0436 49.1239 46.3797 49.03C46.716 48.936 46.991 48.8221 46.991 48.777C46.991 48.7318 47.0979 48.6948 47.2285 48.6948C47.3591 48.6948 47.532 48.629 47.6127 48.5485C47.6934 48.468 47.8505 48.4022 47.962 48.4022C48.0734 48.4022 48.1646 48.3583 48.1646 48.3046C48.1646 48.251 48.2746 48.2071 48.4091 48.2071C48.5435 48.2071 48.6536 48.1632 48.6536 48.1095C48.6536 48.0559 48.7429 48.012 48.8522 48.012C48.9615 48.012 49.0762 47.9462 49.1071 47.8657C49.1382 47.7852 49.2641 47.7194 49.3871 47.7194C49.51 47.7194 49.6344 47.6576 49.6633 47.5822C49.6924 47.5068 49.8462 47.4166 50.0052 47.3818C50.1642 47.3469 50.4202 47.1904 50.5741 47.0339C50.7281 46.8773 50.9085 46.7481 50.9752 46.7466C51.0418 46.7451 51.1885 46.6671 51.3013 46.5732C51.4139 46.4793 51.5972 46.3256 51.7085 46.2318C51.8198 46.1379 51.9627 46.0611 52.0261 46.0611C52.0894 46.0611 52.2002 45.9513 52.2721 45.8172C52.3441 45.6831 52.4616 45.5733 52.5332 45.5733C52.6048 45.5733 52.6633 45.5294 52.6633 45.4758C52.6633 45.4221 52.7111 45.3782 52.7692 45.3782C52.8275 45.3782 53.0186 45.2356 53.194 45.0612C53.6141 44.6433 53.917 44.4028 54.023 44.4028C54.0704 44.4028 54.1368 44.293 54.1705 44.1589C54.2043 44.0248 54.2971 43.915 54.3767 43.915C54.4564 43.915 54.5215 43.8712 54.5215 43.8175C54.5215 43.7638 54.5875 43.72 54.6682 43.72C54.7489 43.72 54.8149 43.6742 54.8149 43.6183C54.8149 43.5108 54.9205 43.3645 55.2795 42.9746C55.4005 42.8432 55.4995 42.6938 55.4995 42.6425C55.4995 42.5913 55.5567 42.5494 55.6266 42.5494C55.6965 42.5494 55.8093 42.3958 55.8774 42.208C55.9455 42.0202 56.0423 41.8666 56.0927 41.8666C56.1429 41.8666 56.1841 41.8007 56.1841 41.7202C56.1841 41.6398 56.2501 41.5739 56.3308 41.5739C56.4115 41.5739 56.4775 41.5259 56.4775 41.4674C56.4775 41.4088 56.5655 41.2492 56.6731 41.1128C56.7807 40.9764 56.8687 40.7953 56.8687 40.7103C56.8687 40.6254 56.9677 40.466 57.0888 40.3562C57.3368 40.1309 57.6511 39.5805 57.6511 39.3712C57.6511 39.2951 57.6951 39.2328 57.7489 39.2328C57.8027 39.2328 57.8467 39.1231 57.8467 38.9889C57.8467 38.8548 57.8898 38.7451 57.9426 38.7451C57.9954 38.7451 58.0662 38.6353 58.0999 38.5012C58.1336 38.3671 58.2005 38.2573 58.2485 38.2573C58.2965 38.2573 58.3357 38.1476 58.3357 38.0135C58.3357 37.8794 58.3705 37.7696 58.4131 37.7696C58.4556 37.7696 58.5748 37.4623 58.678 37.0868C58.7812 36.7112 58.9004 36.404 58.9429 36.404C58.9855 36.404 59.0203 36.2973 59.0203 36.167C59.0203 36.0368 59.0863 35.8643 59.167 35.7839C59.2546 35.6965 59.3137 35.458 59.3137 35.1916C59.3137 34.9463 59.3577 34.7457 59.4115 34.7457C59.4653 34.7457 59.5093 34.5262 59.5093 34.2579C59.5093 33.9897 59.547 33.7702 59.5931 33.7702C59.6393 33.7702 59.7007 33.4246 59.7297 33.0022C59.7588 32.5798 59.8311 32.1438 59.8904 32.0332C60.0365 31.7607 60.0365 28.2686 59.8904 27.9961C59.8311 27.8855 59.7588 27.4495 59.7297 27.0271C59.7007 26.6047 59.6393 26.2591 59.5931 26.2591C59.547 26.2591 59.5093 26.0396 59.5093 25.7714C59.5093 25.5031 59.4653 25.2837 59.4115 25.2837C59.3577 25.2837 59.3123 25.0971 59.3106 24.8691C59.3089 24.641 59.2429 24.3693 59.1639 24.2652C59.0849 24.161 59.0203 23.9745 59.0203 23.8506C59.0203 23.7267 58.9855 23.6254 58.9429 23.6254C58.9004 23.6254 58.7812 23.3181 58.678 22.9425C58.5748 22.567 58.4556 22.2597 58.4131 22.2597C58.3705 22.2597 58.3357 22.1754 58.3357 22.0725C58.3357 21.861 58.0321 21.2858 57.9201 21.2848C57.8797 21.2845 57.8467 21.1745 57.8467 21.0404C57.8467 20.9063 57.8027 20.7965 57.7489 20.7965C57.6951 20.7965 57.6511 20.7056 57.6511 20.5945C57.6511 20.4833 57.5961 20.3312 57.5289 20.2564C57.2431 19.9387 57.1621 19.8241 57.1621 19.738C57.1621 19.6879 57.0961 19.6216 57.0154 19.5906C56.9347 19.5598 56.8687 19.4521 56.8687 19.3513C56.8687 19.2505 56.7807 19.0668 56.6731 18.9431C56.5655 18.8194 56.4775 18.6591 56.4775 18.5868C56.4775 18.5145 56.4115 18.4554 56.3308 18.4554C56.2501 18.4554 56.1841 18.3896 56.1841 18.3091C56.1841 18.2286 56.1429 18.1628 56.0927 18.1628C56.0423 18.1628 55.9455 18.0091 55.8774 17.8213C55.8093 17.6336 55.7074 17.4788 55.651 17.4772C55.5946 17.4757 55.4384 17.3196 55.3039 17.1301C55.1694 16.9406 54.8479 16.5577 54.5893 16.2792C54.3307 16.0007 54.048 15.696 53.9609 15.6022C53.8739 15.5082 53.7444 15.4315 53.6731 15.4315C53.6018 15.4315 53.5435 15.3656 53.5435 15.2851C53.5435 15.2047 53.4975 15.1388 53.441 15.1388C53.3847 15.1388 53.2366 15.0291 53.112 14.8949C52.9873 14.7608 52.8355 14.6511 52.7743 14.6511C52.7133 14.6511 52.6633 14.6072 52.6633 14.5535C52.6633 14.4999 52.5973 14.456 52.5166 14.456C52.4359 14.456 52.3699 14.4062 52.3699 14.3455C52.3699 14.2234 51.9963 13.8707 51.8671 13.8707C51.791 13.8707 51.7044 13.8068 51.1732 13.3586C51.0619 13.2647 50.9115 13.1879 50.8391 13.1879C50.7666 13.1879 50.7073 13.1468 50.7073 13.0967C50.7073 13.0464 50.5533 12.9499 50.365 12.882C50.1768 12.8141 50.0227 12.7235 50.0227 12.6805C50.0227 12.6377 49.9589 12.6026 49.8809 12.6026C49.8029 12.6026 49.7039 12.5478 49.6609 12.4807C49.5727 12.3432 49.0792 12.0927 48.5313 11.9072C48.3296 11.8389 48.1646 11.748 48.1646 11.7051C48.1646 11.6623 48.0752 11.6271 47.9659 11.6271C47.8566 11.6271 47.7419 11.5613 47.711 11.4808C47.6784 11.3962 47.5322 11.3345 47.3648 11.3345C47.2052 11.3345 47.0141 11.2739 46.9399 11.2C46.8658 11.126 46.5938 11.0347 46.3357 10.9973C46.0775 10.9598 45.7688 10.8667 45.6496 10.7904C45.5305 10.7141 45.3031 10.6517 45.1444 10.6517C44.9856 10.6517 44.8388 10.6011 44.8182 10.5394C44.7975 10.4776 44.5297 10.4063 44.2232 10.381C43.9166 10.3556 43.6658 10.2999 43.6658 10.2571C43.6658 10.0819 38.2148 9.90066 37.8467 10.0637ZM38.678 11.2484C38.678 11.2957 38.7366 11.3345 38.8082 11.3345C38.8798 11.3345 38.9972 11.4442 39.0692 11.5784C39.1412 11.7125 39.2366 11.8222 39.2813 11.8222C39.326 11.8222 39.3626 12.0856 39.3626 12.4075C39.3626 12.7294 39.326 12.9928 39.2813 12.9928C39.2366 12.9928 39.1437 13.0977 39.075 13.2259C38.9908 13.3829 38.8331 13.4777 38.5921 13.5161C38.1031 13.5941 37.5044 13.487 37.5044 13.3214C37.5044 13.248 37.4675 13.1879 37.4224 13.1879C37.2941 13.1879 37.1132 12.7223 37.1132 12.3918C37.1132 11.9324 37.4596 11.4052 37.8756 11.2316C38.2404 11.0792 38.678 11.0884 38.678 11.2484ZM40.8865 11.1394C41.2822 11.1394 41.3186 11.16 41.3186 11.3833C41.3186 11.5979 41.2766 11.6271 40.9694 11.6271C40.6627 11.6271 40.3406 11.7984 40.3406 11.9616C40.3406 11.9923 40.5336 12.0173 40.7693 12.0173C41.1166 12.0173 41.2078 12.0546 41.2495 12.2137C41.3115 12.45 41.0725 12.6026 40.6405 12.6026C40.3503 12.6026 40.3406 12.6167 40.3406 13.0416C40.3406 13.4447 40.3207 13.4805 40.0961 13.4805H39.8516V12.4144C39.8516 11.5594 39.8831 11.3169 40.0109 11.1895C40.0985 11.1021 40.2342 11.0551 40.3123 11.085C40.3905 11.1149 40.6489 11.1394 40.8865 11.1394ZM44.526 11.6723C44.5961 11.7421 44.5778 12.2133 44.502 12.2888C44.4643 12.3264 44.3906 12.2807 44.3382 12.1872C44.2737 12.0723 44.1228 12.0173 43.8719 12.0173C43.5515 12.0173 43.4769 12.0618 43.3246 12.344C43.115 12.7322 43.1826 13.1455 43.4704 13.2368C43.5779 13.2707 43.6658 13.3395 43.6658 13.3895C43.6658 13.4396 43.7758 13.4805 43.9103 13.4805C44.0448 13.4805 44.1548 13.4366 44.1548 13.383C44.1548 13.3293 44.1988 13.2854 44.2526 13.2854C44.3914 13.2854 44.3682 13.5953 44.2142 13.7975C44.1428 13.8915 43.9917 13.9683 43.8784 13.9683C43.6316 13.9683 42.9812 13.6723 42.9812 13.56C42.9812 13.5163 42.9152 13.4805 42.8345 13.4805C42.7171 13.4805 42.6878 13.3342 42.6878 12.7489C42.6878 12.3465 42.7235 12.0173 42.7671 12.0173C42.8108 12.0173 42.9361 11.934 43.0457 11.8323C43.1553 11.7304 43.3286 11.6236 43.4309 11.5948C43.6281 11.5392 44.451 11.5975 44.526 11.6723ZM37.969 11.8538C37.7634 12.0216 37.7 12.1588 37.7 12.4356C37.7 12.6924 37.7427 12.7977 37.8467 12.7977C37.9274 12.7977 37.9934 12.8416 37.9934 12.8952C37.9934 12.9489 38.1313 12.9928 38.2998 12.9928C38.6294 12.9928 38.9714 12.6948 38.9714 12.4075C38.9714 12.2124 38.6541 11.8222 38.4954 11.8222C38.4345 11.8222 38.3846 11.7783 38.3846 11.7247C38.3846 11.5753 38.264 11.6128 37.969 11.8538ZM35.3528 11.986C35.3528 12.1976 35.5302 12.7704 35.7049 13.1226C35.8188 13.3523 35.9009 13.9692 35.8174 13.9679C35.804 13.9677 35.5764 13.8579 35.3119 13.724C35.0472 13.5901 34.7721 13.4805 34.7006 13.4805C34.629 13.4805 34.5704 13.4366 34.5704 13.383C34.5704 13.3293 34.4824 13.2854 34.3748 13.2854C34.1429 13.2854 34.1221 13.4093 34.3259 13.5781C34.4109 13.6484 34.4726 13.8612 34.4726 14.0842C34.4726 14.4463 34.4569 14.4671 34.2037 14.438C33.9796 14.4124 33.9297 14.3543 33.9041 14.0902C33.8872 13.9159 33.8322 13.7732 33.7819 13.7732C33.7314 13.7732 33.6902 13.6222 33.6902 13.4375C33.6902 13.2528 33.6462 13.0747 33.5924 13.0416C33.5387 13.0084 33.4946 12.8303 33.4946 12.6456C33.4946 12.461 33.5387 12.31 33.5924 12.31C33.6462 12.31 33.6902 12.3442 33.6902 12.3861C33.6902 12.4596 33.9473 12.5834 34.667 12.8563C35.0394 12.9976 35.2553 12.9028 35.0146 12.7036C34.9262 12.6303 34.8638 12.4223 34.8638 12.2005C34.8638 11.862 34.8896 11.8222 35.1083 11.8222C35.2721 11.8222 35.3528 11.8764 35.3528 11.986ZM46.2086 12.1072C46.2086 12.1565 46.3406 12.2259 46.502 12.2612C46.6633 12.2965 46.7954 12.3878 46.7954 12.464C46.7954 12.5403 46.8286 12.6026 46.8694 12.6026C47.0079 12.6026 47.205 13.4036 47.0938 13.5146C47.0372 13.5709 46.991 13.6776 46.991 13.7514C46.991 13.8253 46.8566 14.0198 46.6923 14.1836C46.4284 14.4468 46.3296 14.481 45.8449 14.4767C45.4577 14.4732 45.2714 14.4277 45.2123 14.3223C45.1661 14.2402 45.0634 14.1081 44.9839 14.0288C44.8199 13.8651 44.7778 12.7977 44.9353 12.7977C44.988 12.7977 45.0588 12.688 45.0926 12.5538C45.1294 12.4077 45.2239 12.31 45.3285 12.31C45.4245 12.31 45.5284 12.2441 45.5594 12.1636C45.6201 12.0056 46.2086 11.9544 46.2086 12.1072ZM45.7726 12.7366C45.2862 13.0157 45.1663 13.4991 45.5073 13.8068C45.9367 14.1945 46.502 13.8427 46.502 13.1879C46.502 12.8403 46.4762 12.7977 46.2656 12.7977C46.1356 12.7977 46.0146 12.7593 45.9966 12.7122C45.9787 12.6652 45.8779 12.6762 45.7726 12.7366ZM32.9382 13.3006C33.2112 13.573 33.2469 13.6718 33.2469 14.1558C33.2469 14.5921 33.2026 14.7473 33.0284 14.921C32.9083 15.0408 32.7707 15.1388 32.7227 15.1388C32.6747 15.1388 32.61 15.2047 32.579 15.2851C32.5437 15.3769 32.3942 15.4315 32.1774 15.4315C31.9356 15.4315 31.8321 15.3876 31.8321 15.2851C31.8321 15.1941 31.7397 15.1388 31.5876 15.1388C31.4354 15.1388 31.3431 15.0835 31.3431 14.9925C31.3431 14.912 31.2819 14.8462 31.2072 14.8462C31.0371 14.8462 30.9177 14.2541 31.004 13.8381C31.0392 13.6683 31.1849 13.4111 31.3278 13.2666C31.5432 13.0488 31.6766 13.003 32.1085 12.9983C32.5664 12.9935 32.6669 13.0301 32.9382 13.3006ZM48.3963 13.4074C48.4287 13.528 48.4559 13.8572 48.4566 14.139C48.4579 14.6146 48.559 14.7851 48.7025 14.5535C48.7357 14.4999 48.8483 14.456 48.9527 14.456C49.0572 14.456 49.1426 14.415 49.1426 14.365C49.1426 14.3149 49.2415 14.2432 49.3626 14.2056C49.4837 14.1678 49.6187 14.0881 49.6627 14.0282C49.7068 13.9684 49.7133 14.1829 49.6772 14.5048C49.6412 14.8267 49.5734 15.1138 49.5265 15.1429C49.4797 15.172 49.406 15.3654 49.3628 15.5728C49.2847 15.948 49.024 16.2236 48.8817 16.0817C48.8406 16.0407 48.8155 15.8119 48.826 15.573C48.8364 15.3342 48.8018 15.1388 48.7492 15.1388C48.6966 15.1388 48.6536 15.1784 48.6536 15.2268C48.6536 15.2752 48.5134 15.3636 48.3422 15.4231C47.9589 15.5564 47.8748 15.4575 47.8726 14.8706C47.871 14.3944 47.7968 14.3566 47.5383 14.6999C47.4374 14.834 47.2729 14.9437 47.1729 14.9437C47.0441 14.9437 46.991 14.8726 46.991 14.6999C46.991 14.5657 47.035 14.456 47.0888 14.456C47.1426 14.456 47.1866 14.3901 47.1866 14.3097C47.1866 14.2292 47.234 14.1633 47.292 14.1633C47.405 14.1633 48.1576 13.3829 48.1619 13.261C48.1679 13.0953 48.3417 13.2038 48.3963 13.4074ZM31.7098 13.6968C31.4693 13.9969 31.4956 14.1943 31.8224 14.5432C32.0984 14.8379 32.3211 14.9346 32.3211 14.76C32.3211 14.7126 32.4091 14.6509 32.5167 14.6228C32.6681 14.5833 32.7122 14.4897 32.7122 14.2083C32.7122 13.5731 32.071 13.2458 31.7098 13.6968ZM30.3651 14.432C30.3651 14.5022 30.4311 14.5849 30.5118 14.6158C30.5924 14.6467 30.6585 14.7331 30.6585 14.8078C30.6585 14.8826 30.699 14.9437 30.7486 14.9437C30.7983 14.9437 30.8898 15.0974 30.9519 15.2851C31.014 15.4729 31.1054 15.6265 31.1551 15.6265C31.281 15.6265 31.2675 15.754 31.1205 15.9546C30.9692 16.161 30.6585 16.0737 30.6585 15.8249C30.6585 15.7308 30.5484 15.5714 30.414 15.4708C30.2795 15.37 30.1695 15.2358 30.1695 15.1724C30.1695 15.0158 29.8452 14.4574 29.7538 14.4566C29.7135 14.4563 29.6805 14.3901 29.6805 14.3097C29.6805 14.2292 29.7465 14.1633 29.8272 14.1633C29.9079 14.1633 29.9739 14.1198 29.9739 14.0668C29.9739 14.0136 30.0619 14.0453 30.1695 14.1372C30.277 14.2291 30.3651 14.3618 30.3651 14.432ZM29.3871 14.8835C29.3871 15.0347 29.318 15.134 29.1896 15.1676C28.9937 15.2186 28.9939 15.2219 29.2087 15.5935C29.3277 15.7995 29.5485 16.089 29.6994 16.2371C30.0447 16.5757 30.0749 16.9932 29.7538 16.9901C29.6033 16.9886 29.441 16.8499 29.2404 16.5513C29.079 16.3111 28.892 16.1146 28.8247 16.1145C28.7575 16.1144 28.7025 16.0484 28.7025 15.968C28.7025 15.8049 28.3569 15.7666 28.2624 15.9192C28.1646 16.077 27.8487 16.031 27.7786 15.8486C27.711 15.673 27.9452 15.4315 28.1833 15.4315C28.2537 15.4315 28.3113 15.3817 28.3113 15.3209C28.3113 15.1762 28.6955 14.8462 28.8641 14.8462C28.9366 14.8462 28.9959 14.8023 28.9959 14.7486C28.9959 14.695 29.0839 14.6511 29.1915 14.6511C29.3324 14.6511 29.3871 14.7161 29.3871 14.8835ZM51.0007 14.7486C51.0007 14.8023 51.0681 14.8462 51.1505 14.8462C51.2329 14.8462 51.3256 14.912 51.3565 14.9925C51.3875 15.073 51.4742 15.1388 51.5491 15.1388C51.7365 15.1388 51.7337 15.9825 51.5456 16.17C51.3738 16.3415 50.5444 16.3584 50.4887 16.1916C50.4626 16.1135 50.3711 16.1465 50.2176 16.2892C49.9203 16.5654 49.6315 16.5723 49.6315 16.3029C49.6315 15.9601 49.9832 15.4315 50.2114 15.4315C50.269 15.4315 50.3161 15.3656 50.3161 15.2851C50.3161 15.2047 50.3554 15.1388 50.4034 15.1388C50.4513 15.1388 50.5182 15.0291 50.5519 14.8949C50.6117 14.6573 51.0007 14.5305 51.0007 14.7486ZM40.4384 15.0413C40.2167 15.0878 40.538 15.1176 41.35 15.1259C42.2709 15.1354 42.6398 15.1745 42.7387 15.2732C42.8135 15.3478 43.2028 15.4384 43.6135 15.4768C44.0349 15.5161 44.4129 15.6053 44.4916 15.6838C44.5676 15.7596 44.7376 15.8216 44.8693 15.8216C45.001 15.8216 45.1636 15.8875 45.2306 15.968C45.2976 16.0484 45.457 16.1143 45.5848 16.1143C45.7127 16.1143 45.8174 16.1582 45.8174 16.2118C45.8174 16.2655 45.9028 16.3094 46.0072 16.3094C46.1117 16.3094 46.2242 16.3533 46.2575 16.4069C46.2907 16.4606 46.4051 16.5045 46.5118 16.5045C46.6185 16.5045 46.7715 16.5594 46.8518 16.6264C46.9321 16.6935 47.0525 16.7922 47.1195 16.8459C47.1865 16.8995 47.493 17.0696 47.8006 17.2237C48.1084 17.3778 48.3602 17.5424 48.3602 17.5895C48.3602 17.6365 48.4275 17.675 48.5099 17.675C48.5923 17.675 48.685 17.7409 48.716 17.8213C48.747 17.9018 48.8336 17.9677 48.9085 17.9677C48.9834 17.9677 49.0448 18.0116 49.0448 18.0652C49.0448 18.1189 49.1108 18.1628 49.1915 18.1628C49.2721 18.1628 49.3382 18.2286 49.3382 18.3091C49.3382 18.3896 49.3853 18.4554 49.4429 18.4554C49.5689 18.4554 49.8271 18.6998 49.8271 18.819C49.8271 18.8657 49.9812 18.9595 50.1694 19.0274C50.3577 19.0953 50.5117 19.1978 50.5117 19.2553C50.5117 19.3127 50.6218 19.4614 50.7562 19.5858C50.8907 19.71 51.0007 19.8577 51.0007 19.9139C51.0007 19.9702 51.0668 20.0161 51.1474 20.0161C51.2281 20.0161 51.2941 20.082 51.2941 20.1625C51.2941 20.2429 51.3382 20.3088 51.3919 20.3088C51.4457 20.3088 51.4897 20.3558 51.4897 20.4133C51.4897 20.5484 51.7385 20.7965 51.874 20.7965C51.9316 20.7965 51.9787 20.8843 51.9787 20.9916C51.9787 21.0989 52.025 21.1867 52.0816 21.1867C52.1382 21.1867 52.2306 21.3184 52.2868 21.4793C52.343 21.6403 52.4258 21.772 52.4707 21.772C52.5157 21.772 52.5827 21.8674 52.6198 21.9839C52.6823 22.1804 52.7339 22.2593 53.0097 22.5802C53.0658 22.6453 53.1695 22.8523 53.2402 23.0401C53.4403 23.5712 53.6829 24.0611 53.7636 24.0968C53.804 24.1148 53.8369 24.2081 53.8369 24.3044C53.8369 24.4007 53.8983 24.5302 53.9734 24.5923C54.0484 24.6544 54.1364 24.8573 54.169 25.0432C54.2015 25.2291 54.255 25.5352 54.2878 25.7235C54.3206 25.9118 54.3867 26.09 54.4345 26.1194C54.4824 26.149 54.5215 26.3429 54.5215 26.5506C54.5215 26.7582 54.5841 26.9904 54.6606 27.0667C55.0102 27.4154 55.0104 32.6137 54.6609 32.9623C54.5842 33.0387 54.5215 33.2712 54.5215 33.4787C54.5215 33.6864 54.4775 33.8834 54.4237 33.9165C54.3699 33.9497 54.3259 34.0699 54.3259 34.1836C54.3259 34.4332 54.161 34.9856 53.9738 35.3632C53.8985 35.5151 53.8369 35.7017 53.8369 35.7778C53.8369 35.8539 53.7977 35.9162 53.7497 35.9162C53.7018 35.9162 53.6349 36.026 53.6011 36.1601C53.5674 36.2942 53.4966 36.404 53.4439 36.404C53.3911 36.404 53.3479 36.4897 53.3479 36.5945C53.3479 36.9018 53.1332 37.3307 52.7856 37.7172C52.7183 37.792 52.6633 37.8971 52.6633 37.9508C52.6633 38.0044 52.6084 38.1076 52.5411 38.1802C52.3734 38.3611 52.076 38.855 52.0102 39.0621C51.9803 39.1559 51.9139 39.2328 51.8626 39.2328C51.754 39.2328 51.4897 39.4793 51.4897 39.5805C51.4897 39.6184 51.3797 39.7511 51.2452 39.8754C51.1108 39.9997 51.0007 40.1474 51.0007 40.2036C51.0007 40.2599 50.9347 40.3058 50.854 40.3058C50.7734 40.3058 50.7073 40.3717 50.7073 40.4521C50.7073 40.5326 50.6633 40.5985 50.6095 40.5985C50.5558 40.5985 50.5117 40.6643 50.5117 40.7448C50.5117 40.8253 50.4659 40.8911 50.4098 40.8911C50.3021 40.8911 50.1554 40.9965 49.7645 41.3544C49.6327 41.4752 49.4829 41.5739 49.4315 41.5739C49.3802 41.5739 49.3382 41.6398 49.3382 41.7202C49.3382 41.8007 49.2721 41.8666 49.1915 41.8666C49.1108 41.8666 49.0448 41.9105 49.0448 41.9641C49.0448 42.0178 48.9787 42.0617 48.8981 42.0617C48.8174 42.0617 48.7514 42.1056 48.7514 42.1592C48.7514 42.2129 48.684 42.2568 48.6016 42.2568C48.5192 42.2568 48.4265 42.3226 48.3956 42.4031C48.3646 42.4836 48.2779 42.5494 48.203 42.5494C48.1281 42.5494 48.0668 42.5897 48.0668 42.6388C48.0668 42.6881 47.8687 42.8038 47.6267 42.896C47.3846 42.9882 47.1866 43.1016 47.1866 43.1479C47.1866 43.1943 47.1032 43.2322 47.0014 43.2322C46.8996 43.2322 46.791 43.2981 46.76 43.3785C46.7291 43.459 46.6143 43.5249 46.505 43.5249C46.3958 43.5249 46.3064 43.5688 46.3064 43.6224C46.3064 43.6761 46.1963 43.72 46.0619 43.72C45.9274 43.72 45.8174 43.7638 45.8174 43.8175C45.8174 43.8712 45.7127 43.915 45.5848 43.915C45.457 43.915 45.2976 43.9809 45.2306 44.0614C45.1636 44.1418 44.9822 44.2077 44.8274 44.2077C44.6726 44.2077 44.546 44.2433 44.546 44.2868C44.546 44.3304 44.1829 44.4426 43.7391 44.5362C43.2953 44.6299 42.7783 44.7503 42.59 44.8039C42.1471 44.9299 37.6216 44.8574 36.9665 44.7138C36.6976 44.6548 36.2244 44.5534 35.9152 44.4883C35.6059 44.4234 35.3528 44.3336 35.3528 44.2889C35.3528 44.2443 35.2459 44.2077 35.1153 44.2077C34.9847 44.2077 34.8118 44.1418 34.7311 44.0614C34.6504 43.9809 34.4933 43.915 34.3818 43.915C34.2704 43.915 34.1792 43.8712 34.1792 43.8175C34.1792 43.7638 34.0472 43.72 33.8858 43.72C33.7245 43.72 33.5924 43.6761 33.5924 43.6224C33.5924 43.5688 33.5251 43.5249 33.4427 43.5249C33.3603 43.5249 33.2676 43.459 33.2366 43.3785C33.2056 43.2981 33.0797 43.2322 32.9567 43.2322C32.8338 43.2322 32.7094 43.1705 32.6805 43.0951C32.6514 43.0197 32.5005 42.9301 32.3451 42.8961C32.1898 42.862 31.92 42.7043 31.7457 42.5455C31.5714 42.3867 31.3875 42.2568 31.337 42.2568C31.2865 42.2568 31.2453 42.2129 31.2453 42.1592C31.2453 42.1056 31.1792 42.0617 31.0986 42.0617C31.0179 42.0617 30.9519 42.0178 30.9519 41.9641C30.9519 41.9105 30.9116 41.8666 30.8623 41.8666C30.813 41.8666 30.5838 41.691 30.3531 41.4764C30.1224 41.2618 29.8871 41.0862 29.8303 41.0862C29.7734 41.0862 29.6394 40.9674 29.5325 40.8221C29.4256 40.677 29.2612 40.4795 29.167 40.3832C29.0728 40.287 28.9959 40.1878 28.9959 40.1627C28.9959 40.1377 28.8418 39.9636 28.6536 39.7759C28.4653 39.5881 28.3113 39.3891 28.3113 39.3336C28.3113 39.2782 28.2453 39.2328 28.1646 39.2328C28.0839 39.2328 28.0179 39.1775 28.0179 39.1099C28.0179 39.0423 27.9189 38.8755 27.7978 38.7392C27.5365 38.4451 27.3333 38.1051 27.3333 37.9619C27.3333 37.8665 27.2634 37.7642 26.9794 37.4447C26.9193 37.377 26.8393 37.2248 26.8017 37.1066C26.7641 36.9885 26.6923 36.8917 26.6421 36.8917C26.592 36.8917 26.5509 36.782 26.5509 36.6478C26.5509 36.5137 26.5069 36.404 26.4531 36.404C26.3993 36.404 26.3553 36.2942 26.3553 36.1601C26.3553 36.026 26.3113 35.9162 26.2575 35.9162C26.2037 35.9162 26.1597 35.8271 26.1597 35.7181C26.1597 35.6091 26.0937 35.4946 26.013 35.4638C25.9224 35.4291 25.8663 35.2809 25.8663 35.0766C25.8663 34.8946 25.8271 34.7457 25.7792 34.7457C25.7313 34.7457 25.6702 34.6031 25.6435 34.4286C25.516 33.5958 25.3488 32.8923 25.2785 32.8923C25.1797 32.8923 25.0676 31.303 25.072 29.9659C25.0766 28.5709 25.1788 27.137 25.2736 27.137C25.3166 27.137 25.4303 26.72 25.5265 26.2103C25.6227 25.7007 25.7385 25.2837 25.7838 25.2837C25.8292 25.2837 25.8663 25.1347 25.8663 24.9527C25.8663 24.7484 25.9224 24.6002 26.013 24.5655C26.0937 24.5347 26.1597 24.4203 26.1597 24.3112C26.1597 24.2023 26.2037 24.1131 26.2575 24.1131C26.3113 24.1131 26.3553 24.006 26.3553 23.875C26.3553 23.744 26.3993 23.6098 26.4531 23.5766C26.5069 23.5434 26.5509 23.4311 26.5509 23.327C26.5509 23.2228 26.592 23.1376 26.6421 23.1376C26.6923 23.1376 26.7641 23.0409 26.8017 22.9227C26.8393 22.8045 26.9193 22.6523 26.9794 22.5846C27.228 22.3049 27.2978 22.196 27.4221 21.8939C27.4939 21.7196 27.5913 21.5769 27.6385 21.5769C27.6858 21.5769 27.7245 21.5097 27.7245 21.4275C27.7245 21.3453 27.7905 21.2528 27.8712 21.222C27.9519 21.1911 28.0179 21.0827 28.0179 20.9812C28.0179 20.8796 28.0769 20.7965 28.1488 20.7965C28.2209 20.7965 28.3301 20.6868 28.3913 20.5526C28.4526 20.4185 28.5477 20.3088 28.6026 20.3088C28.6575 20.3088 28.7025 20.2429 28.7025 20.1625C28.7025 20.082 28.7575 20.016 28.8247 20.0159C28.892 20.0158 29.079 19.8189 29.2404 19.5784C29.4017 19.3379 29.6094 19.116 29.7017 19.0854C29.794 19.0547 30.0708 18.8346 30.3167 18.5962C30.5625 18.3578 30.806 18.1628 30.8578 18.1628C30.9095 18.1628 30.9519 18.1189 30.9519 18.0652C30.9519 18.0116 30.9979 17.9677 31.0544 17.9677C31.1107 17.9677 31.2541 17.8688 31.3729 17.7482C31.6365 17.4805 31.8661 17.3341 32.3455 17.1284C32.5473 17.0418 32.7122 16.9366 32.7122 16.8947C32.7122 16.8526 32.8223 16.7907 32.9567 16.757C33.0912 16.7234 33.2012 16.6527 33.2012 16.6002C33.2012 16.5475 33.2866 16.5045 33.3911 16.5045C33.4955 16.5045 33.6081 16.4606 33.6413 16.4069C33.6746 16.3533 33.8092 16.3094 33.9405 16.3094C34.0719 16.3094 34.1792 16.2655 34.1792 16.2118C34.1792 16.1582 34.2619 16.1143 34.3629 16.1143C34.4638 16.1143 34.6012 16.0484 34.6682 15.968C34.7352 15.8875 34.8978 15.8216 35.0295 15.8216C35.1612 15.8216 35.3291 15.7617 35.4024 15.6886C35.4759 15.6153 35.8578 15.5253 36.2512 15.4885C37.1049 15.4087 37.3306 15.3505 37.2556 15.2293C37.2224 15.1757 37.7098 15.1341 38.4522 15.1273C39.2413 15.12 39.5963 15.0882 39.4115 15.0413C39.2098 14.9901 39.3782 14.9672 39.9494 14.9681C40.5527 14.9691 40.6868 14.9891 40.4384 15.0413ZM50.7073 15.6201C50.7073 15.7801 50.7693 15.8216 51.0079 15.8216C51.2413 15.8216 51.3013 15.7835 51.276 15.6509C51.2565 15.548 51.1372 15.4679 50.9754 15.4494C50.7597 15.4245 50.7073 15.4579 50.7073 15.6201ZM52.6457 16.286C52.6667 16.4327 52.6266 16.5045 52.5235 16.5045C52.439 16.5045 52.3698 16.5594 52.3698 16.6264C52.3696 16.7881 51.937 17.2848 51.7962 17.2848C51.6387 17.2848 51.6587 17.6623 51.8251 17.8283C51.9844 17.9873 52.3699 18.0168 52.3699 17.8701C52.3699 17.8165 52.4359 17.7726 52.5166 17.7726C52.5973 17.7726 52.6633 17.7067 52.6633 17.6262C52.6633 17.5458 52.7093 17.4799 52.7655 17.4799C52.8218 17.4799 52.9779 17.3702 53.1123 17.2361C53.3759 16.9732 53.5098 16.9419 53.7391 17.0897C53.8369 17.1528 53.845 17.1848 53.7636 17.1858C53.6964 17.1866 53.6413 17.2531 53.6413 17.3336C53.6413 17.4141 53.5753 17.4799 53.4946 17.4799C53.4139 17.4799 53.3479 17.5458 53.3479 17.6262C53.3479 17.7067 53.3039 17.7726 53.2501 17.7726C53.1963 17.7726 53.1523 17.8375 53.1523 17.917C53.1523 17.9964 53.0423 18.089 52.9078 18.1227C52.7734 18.1563 52.6633 18.245 52.6633 18.3196C52.6633 18.4175 52.5269 18.4554 52.1743 18.4554C51.8232 18.4554 51.6853 18.4174 51.6853 18.3205C51.6853 18.2463 51.6036 18.1642 51.5036 18.1381C51.1628 18.0492 51.1604 17.2698 51.4996 16.9066C51.6018 16.7972 51.6853 16.662 51.6853 16.6061C51.6853 16.5502 51.7248 16.5045 51.7729 16.5045C51.821 16.5045 51.9641 16.3947 52.0907 16.2607C52.364 15.9715 52.6022 15.9823 52.6457 16.286ZM27.5918 16.6508C27.6725 16.7313 27.8674 16.7971 28.0248 16.7971C28.1824 16.7971 28.3113 16.8355 28.3113 16.8825C28.3113 16.9294 28.4458 16.9946 28.6103 17.0275C28.7748 17.0603 28.976 17.1535 29.0574 17.2348C29.189 17.366 29.1891 17.3987 29.0588 17.5287C28.88 17.7069 28.736 17.7159 28.6674 17.5531C28.6312 17.4672 28.5824 17.4845 28.5022 17.6116C28.4396 17.7109 28.305 17.8634 28.2031 17.9504C28.1012 18.0374 28.0179 18.207 28.0179 18.3274C28.0179 18.4478 27.8968 18.6731 27.7489 18.8283C27.6011 18.9834 27.4315 19.1929 27.3722 19.2939C27.2693 19.4692 27.2465 19.465 26.8665 19.2023C26.6476 19.0511 26.3886 18.8211 26.2909 18.6914C26.1932 18.5615 26.0577 18.4554 25.9898 18.4554C25.9218 18.4554 25.8663 18.3942 25.8663 18.3195C25.8663 18.2448 25.8037 18.1596 25.7272 18.1304C25.6413 18.0975 25.6085 17.9992 25.6415 17.8733C25.682 17.7187 25.744 17.6851 25.8983 17.7339C26.0102 17.7694 26.1515 17.8474 26.2123 17.9074C26.2732 17.9674 26.4451 18.1042 26.5942 18.2115C26.7434 18.3188 26.9892 18.5273 27.1407 18.6749C27.5051 19.0299 27.5625 19.0138 27.4869 18.5773C27.4521 18.3762 27.3986 18.047 27.3682 17.8457C27.3377 17.6446 27.2772 17.4799 27.2338 17.4799C27.1904 17.4799 27.1252 17.3043 27.0888 17.0897C27.0524 16.8751 26.9799 16.6996 26.9277 16.6996C26.8755 16.6996 26.8599 16.6557 26.8932 16.602C26.9846 16.4544 27.4258 16.4852 27.5918 16.6508ZM27.5716 17.2948C27.508 17.3974 27.7572 17.675 27.9131 17.675C27.9707 17.675 28.0179 17.5923 28.0179 17.4913C28.0179 17.2973 27.6661 17.1423 27.5716 17.2948ZM54.704 18.1628C54.765 18.1628 54.8149 18.225 54.8149 18.301C54.8149 18.377 54.8479 18.4537 54.8883 18.4717C55.0202 18.5301 55.3273 19.2167 55.2659 19.3159C55.1813 19.4523 54.8149 19.3384 54.8149 19.1756C54.8149 19.0352 54.5521 18.9977 54.285 19.0999C54.2 19.1325 54.1303 19.2203 54.1303 19.295C54.1303 19.3697 54.0643 19.4309 53.9836 19.4309C53.9029 19.4309 53.8369 19.4748 53.8369 19.5284C53.8369 19.5821 53.7709 19.626 53.6902 19.626C53.6095 19.626 53.5435 19.6652 53.5435 19.7131C53.5435 19.8364 53.2775 19.923 53.1034 19.8564C53.0227 19.8254 52.9567 19.7375 52.9567 19.661C52.9567 19.5063 53.4965 18.9431 53.6446 18.9431C53.795 18.9431 54.1303 18.5679 54.1303 18.3997C54.1303 18.3153 54.0643 18.1805 53.9836 18.1C53.7905 17.9074 53.7983 17.7957 54.0081 17.7481C54.1022 17.7267 54.2723 17.8113 54.3862 17.936C54.5 18.0607 54.6431 18.1628 54.704 18.1628ZM25.4751 18.7998C25.4751 18.8821 25.4091 18.9745 25.3284 19.0054C25.2477 19.0363 25.1817 19.118 25.1817 19.187C25.1817 19.256 25.1157 19.3377 25.035 19.3686C24.8034 19.4572 24.8629 19.7269 25.1808 20.03C25.691 20.5164 26.0546 20.3977 26.4196 19.626C26.4831 19.4918 26.5386 19.437 26.543 19.504C26.5473 19.5711 26.6169 19.626 26.6976 19.626C26.7869 19.626 26.8443 19.7168 26.8443 19.8579C26.8443 19.9854 26.7783 20.1444 26.6976 20.2112C26.6169 20.2781 26.5509 20.3743 26.5509 20.4253C26.5509 20.6518 26.2459 20.7965 25.7691 20.7965C24.8726 20.7965 24.4971 20.469 24.4971 19.6871C24.4971 19.2743 24.5465 19.0986 24.7171 18.9044C24.9666 18.6205 25.4751 18.5504 25.4751 18.7998ZM55.8152 19.7967C55.8776 20.0869 55.7838 20.29 55.5617 20.3456C55.4446 20.3748 55.2526 20.4883 55.1349 20.5976C55.0172 20.7071 54.8595 20.7965 54.7844 20.7965C54.7093 20.7965 54.5291 20.9063 54.3841 21.0404C54.0752 21.326 53.9781 21.3426 53.894 21.1242C53.8078 20.8998 53.9202 20.6014 54.0911 20.6014C54.1698 20.6014 54.258 20.5399 54.2869 20.4648C54.3158 20.3895 54.4135 20.302 54.5038 20.2702C54.5943 20.2385 54.8663 20.084 55.1083 19.927C55.6261 19.5909 55.7655 19.5652 55.8152 19.7967ZM25.0505 21.2577C25.3894 21.6259 25.4751 21.7908 25.4751 22.075C25.4751 22.2724 25.4098 22.485 25.3284 22.5524C25.2477 22.6192 25.1817 22.7343 25.1817 22.8081C25.1817 22.8821 25.0974 22.9425 24.9942 22.9425C24.8911 22.9425 24.7918 22.9875 24.7734 23.0424C24.7116 23.2276 24.0562 23.2693 23.8854 23.0989C23.7992 23.0129 23.6888 22.9425 23.6401 22.9425C23.5913 22.9425 23.4341 22.8112 23.2907 22.6508C23.0903 22.4262 23.0301 22.2576 23.0301 21.9192C23.0301 21.6773 23.0712 21.4793 23.1214 21.4793C23.1715 21.4793 23.2405 21.3916 23.2745 21.2844C23.3086 21.1773 23.4436 21.0628 23.5746 21.03C23.7054 20.9973 23.8125 20.9313 23.8125 20.8835C23.8125 20.8356 23.9956 20.7965 24.2192 20.7965C24.5792 20.7965 24.6749 20.8496 25.0505 21.2577ZM56.3797 20.8941C56.3797 20.9477 56.3357 20.9916 56.2819 20.9916C56.2281 20.9916 56.1841 21.1672 56.1841 21.3818C56.1841 21.5964 56.1401 21.772 56.0863 21.772C56.0325 21.772 55.9885 21.9256 55.9885 22.1134C55.9885 22.3012 56.0325 22.4548 56.0863 22.4548C56.1401 22.4548 56.1841 22.4109 56.1841 22.3573C56.1841 22.3036 56.2955 22.2597 56.4316 22.2597C56.5679 22.2597 56.7046 22.1939 56.7355 22.1134C56.7665 22.0329 56.8752 21.9671 56.977 21.9671C57.1093 21.9671 57.1621 22.0367 57.1621 22.2109C57.1621 22.3627 57.1067 22.4548 57.0154 22.4548C56.9347 22.4548 56.8687 22.4987 56.8687 22.5524C56.8687 22.606 56.7854 22.6499 56.6836 22.6499C56.5818 22.6499 56.4731 22.7157 56.4421 22.7962C56.4112 22.8767 56.2965 22.9425 56.1871 22.9425C56.0779 22.9425 55.9885 22.9856 55.9885 23.0382C55.9885 23.0908 55.8785 23.1614 55.744 23.1951C55.6095 23.2287 55.4995 23.2955 55.4995 23.3433C55.4995 23.3912 55.4335 23.4303 55.3528 23.4303C55.158 23.4303 55.1558 22.8509 55.3497 22.5954C55.5077 22.387 55.5534 21.6744 55.4087 21.6744C55.3588 21.6744 55.2519 21.7403 55.1712 21.8208C55.0905 21.9012 54.981 21.9671 54.9279 21.9671C54.8747 21.9671 54.8055 22.022 54.7741 22.089C54.7286 22.1866 54.7057 22.1866 54.6601 22.089C54.6287 22.022 54.5407 21.9671 54.4645 21.9671C54.188 21.9671 54.3344 21.6867 54.6682 21.5769C54.8565 21.5149 55.0105 21.4342 55.0105 21.3974C55.0105 21.3293 55.3118 21.1499 55.6218 21.0333C55.7158 20.9978 55.7929 20.9301 55.7929 20.8826C55.7929 20.8353 55.9249 20.7965 56.0863 20.7965C56.2477 20.7965 56.3797 20.8404 56.3797 20.8941ZM33.8858 21.5212C33.8858 21.6514 33.9461 21.8181 34.0196 21.8915C34.0933 21.9649 34.1842 22.1217 34.2218 22.2399C34.2594 22.358 34.3242 22.4548 34.3657 22.4548C34.4073 22.4548 34.4994 22.6304 34.5704 22.845C34.6414 23.0596 34.7365 23.2352 34.7817 23.2352C34.8269 23.2352 34.8638 23.323 34.8638 23.4303C34.8638 23.5386 34.9291 23.6254 35.0105 23.6254C35.1018 23.6254 35.1572 23.7174 35.1572 23.8692C35.1572 24.0034 35.1909 24.1131 35.232 24.1131C35.3105 24.1131 35.6462 24.8251 35.6462 24.9917C35.6462 25.045 35.6902 25.0886 35.744 25.0886C35.7978 25.0886 35.8418 25.1439 35.8418 25.2115C35.8418 25.2791 35.9519 25.4528 36.0863 25.5975C36.2208 25.742 36.3308 25.9256 36.3308 26.0052C36.3308 26.0849 36.3748 26.1772 36.4286 26.2103C36.4824 26.2435 36.5264 26.359 36.5264 26.4669C36.5264 26.5749 36.5815 26.7244 36.6487 26.7992C36.8932 27.0711 36.9717 27.1991 37.2599 27.7952C37.5663 28.4288 37.8156 28.5685 38.1122 28.2727C38.1853 28.1998 38.407 28.0818 38.6049 28.0105C38.8027 27.9391 38.987 27.8226 39.0142 27.7517C39.0927 27.5478 38.957 27.0279 38.8108 26.9719C38.7378 26.9439 38.678 26.8433 38.678 26.7483C38.678 26.6534 38.612 26.521 38.5313 26.4542C38.4506 26.3874 38.3846 26.2723 38.3846 26.1984C38.3846 26.1245 38.3406 26.064 38.2868 26.064C38.233 26.064 38.189 25.9982 38.189 25.9177C38.189 25.8372 38.145 25.7714 38.0912 25.7714C38.0374 25.7714 37.9934 25.6616 37.9934 25.5275C37.9934 25.3934 37.9503 25.2837 37.8975 25.2837C37.8448 25.2837 37.774 25.1739 37.7402 25.0398C37.7065 24.9057 37.6396 24.7959 37.5917 24.7959C37.5436 24.7959 37.5044 24.5325 37.5044 24.2106C37.5044 23.8855 37.5478 23.6254 37.6022 23.6254C37.656 23.6254 37.7 23.5411 37.7 23.438C37.7 23.3066 37.6066 23.2302 37.3871 23.1821C37.0369 23.1054 36.5264 22.6495 36.5264 22.4135C36.5264 22.329 36.4824 22.2597 36.4286 22.2597C36.3748 22.2597 36.3308 22.1939 36.3308 22.1134C36.3308 22.0329 36.2837 21.9671 36.2261 21.9671C36.1684 21.9671 36.0552 21.9012 35.9745 21.8208C35.8939 21.7403 35.7151 21.6744 35.5773 21.6744C35.2416 21.6744 34.5704 21.469 34.5704 21.3664C34.5704 21.3212 34.4164 21.2842 34.2281 21.2842C33.9309 21.2842 33.8858 21.3155 33.8858 21.5212ZM23.8787 21.5248C23.7962 21.6071 23.6815 21.6744 23.6238 21.6744C23.5662 21.6744 23.5191 21.7685 23.5191 21.8834C23.5191 22.1344 24.0324 22.6499 24.2821 22.6499C24.5435 22.6499 24.8883 22.2883 24.8883 22.0143C24.8883 21.6185 24.1457 21.2585 23.8787 21.5248ZM32.1988 21.6441C32.1046 21.6687 32.0277 21.7514 32.0277 21.8279C32.0277 21.9044 31.9836 21.9671 31.9299 21.9671C31.8761 21.9671 31.8321 22.0329 31.8321 22.1134C31.8321 22.1939 31.788 22.2597 31.7343 22.2597C31.6805 22.2597 31.6365 22.4586 31.6365 22.7017C31.6365 23.0047 31.5903 23.1614 31.4898 23.1999C31.4091 23.2308 31.3431 23.3392 31.3431 23.4407C31.3431 23.5423 31.2845 23.6254 31.2129 23.6254C31.1413 23.6254 31.0203 23.7461 30.9441 23.8936C30.8679 24.0411 30.7613 24.1942 30.7076 24.2336C30.6467 24.278 30.6559 24.3058 30.7318 24.3067C30.7991 24.3075 30.8541 24.3767 30.8541 24.4603C30.8541 24.5439 30.8101 24.5852 30.7563 24.5521C30.6941 24.5137 30.6585 24.7884 30.6585 25.3072C30.6585 25.7668 30.6118 26.1691 30.5516 26.2292C30.4336 26.3468 30.5909 26.7469 30.7551 26.7469C30.8821 26.7469 31.0485 27.4005 31.0491 27.9022C31.0496 28.2441 31.0119 28.3357 30.8541 28.3769C30.6386 28.433 30.5872 28.7502 30.7807 28.8286C30.8703 28.8648 30.8733 28.8996 30.7921 28.9586C30.731 29.0029 30.6647 29.127 30.6448 29.2343C30.6248 29.3416 30.5172 29.4695 30.4057 29.5184C30.2943 29.5674 30.1479 29.7317 30.0807 29.8835C29.9784 30.114 29.9825 30.1834 30.1058 30.3064C30.1869 30.3874 30.3126 30.4536 30.3852 30.4536C30.5474 30.4536 30.8541 30.7975 30.8541 30.9793C30.8541 31.1676 31.044 31.2937 31.4409 31.3692C31.84 31.4451 32.7129 31.2481 32.7829 31.0663C32.8094 30.9976 32.9143 30.9414 33.0161 30.9414C33.1179 30.9414 33.2012 30.9022 33.2012 30.8543C33.2012 30.8065 33.3113 30.7398 33.4457 30.7062C33.5802 30.6725 33.6902 30.6019 33.6902 30.5493C33.6902 30.4966 33.8003 30.4536 33.9347 30.4536C34.0692 30.4536 34.1792 30.4097 34.1792 30.3561C34.1792 30.3024 34.2262 30.2585 34.2836 30.2585C34.3409 30.2585 34.5321 30.1488 34.7084 30.0147C34.8848 29.8805 35.1019 29.7708 35.1909 29.7708C35.2876 29.7708 35.3528 29.6923 35.3528 29.5757C35.3528 29.4684 35.3088 29.3806 35.255 29.3806C35.2012 29.3806 35.1572 29.2995 35.1572 29.2004C35.1572 28.9664 34.8369 28.6002 34.6323 28.6002C34.5445 28.6002 34.4726 28.5563 34.4726 28.5027C34.4726 28.449 34.2966 28.4051 34.0814 28.4051C33.8123 28.4051 33.6902 28.4475 33.6902 28.541C33.6902 28.6157 33.6206 28.7035 33.5355 28.7361C33.2813 28.8334 32.3211 28.8031 32.3211 28.6978C32.3211 28.6441 32.255 28.6002 32.1744 28.6002C32.0574 28.6002 32.0277 28.4561 32.0277 27.8882V27.1763L32.3524 27.0591C33.2196 26.7464 33.8317 27.0085 33.9494 27.743C33.999 28.0526 34.047 28.1125 34.2454 28.1125C34.3755 28.1125 34.5839 28.2222 34.7085 28.3564C34.8332 28.4905 34.9662 28.6002 35.0043 28.6002C35.1385 28.6002 35.3266 28.8555 35.4564 29.2135C35.5729 29.5347 35.8418 29.724 35.8418 29.4847C35.8418 29.4347 35.9388 29.3631 36.0573 29.3255C36.1758 29.288 36.333 29.1973 36.4066 29.1239C36.4802 29.0505 36.6033 28.9904 36.6801 28.9904C36.7569 28.9904 36.8198 28.9465 36.8198 28.8929C36.8198 28.8392 36.9078 28.7953 37.0154 28.7953C37.123 28.7953 37.211 28.736 37.211 28.6635C37.211 28.449 37.0027 27.9174 36.9187 27.9174C36.876 27.9174 36.8134 27.8077 36.7796 27.6735C36.7459 27.5394 36.6751 27.4297 36.6224 27.4297C36.5696 27.4297 36.5264 27.3419 36.5264 27.2346C36.5264 27.1273 36.4824 27.0395 36.4286 27.0395C36.3748 27.0395 36.3308 26.9517 36.3308 26.8444C36.3308 26.7371 36.2916 26.6493 36.2436 26.6493C36.1957 26.6493 36.1288 26.5396 36.095 26.4054C36.0613 26.2713 35.9905 26.1616 35.9378 26.1616C35.885 26.1616 35.8418 26.0738 35.8418 25.9665C35.8418 25.8581 35.7766 25.7714 35.6951 25.7714C35.6039 25.7714 35.5484 25.6793 35.5484 25.5275C35.5484 25.3934 35.5044 25.2837 35.4506 25.2837C35.3968 25.2837 35.3528 25.2228 35.3528 25.1485C35.3528 24.9936 35.1115 24.5027 34.9925 24.4155C34.8562 24.3155 34.4726 23.5585 34.4726 23.3895C34.4726 23.3013 34.4066 23.2038 34.3259 23.1729C34.2453 23.142 34.1792 23.0117 34.1792 22.8833C34.1792 22.7409 34.122 22.6499 34.0325 22.6499C33.9511 22.6499 33.8858 22.5632 33.8858 22.4548C33.8858 22.3475 33.8506 22.2597 33.8077 22.2597C33.7647 22.2597 33.6738 22.1061 33.6057 21.9183C33.4833 21.5804 33.4763 21.577 32.9259 21.5882C32.6201 21.5944 32.293 21.6196 32.1988 21.6441ZM49.0203 21.6453C48.9262 21.6692 48.8492 21.7514 48.8492 21.8279C48.8492 21.9219 48.7381 21.9671 48.5069 21.9671C48.3186 21.9671 48.1646 22.0141 48.1646 22.0715C48.1646 22.1886 47.9226 22.4548 47.8162 22.4548C47.7782 22.4548 47.6472 22.571 47.5249 22.7129C47.3339 22.9346 47.2506 22.9626 46.9346 22.9114C46.7323 22.8787 46.5411 22.8174 46.5099 22.7751C46.3117 22.5074 45.9099 22.4452 44.6399 22.4856C43.1583 22.5327 42.6878 22.6103 42.6878 22.8072C42.6878 22.8817 42.6438 22.9425 42.59 22.9425C42.5362 22.9425 42.4922 22.9896 42.4922 23.047C42.4922 23.3356 42.2006 23.4303 41.3123 23.4303C40.4775 23.4303 40.3955 23.4125 40.1853 23.1864C40.0607 23.0523 39.8953 22.9425 39.8179 22.9425C39.7403 22.9425 39.6516 22.8767 39.6206 22.7962C39.558 22.6334 38.9714 22.5893 38.9714 22.7474C38.9714 22.8011 38.8834 22.9328 38.7758 23.0401C38.6682 23.1474 38.5362 23.2352 38.4824 23.2352C38.4286 23.2352 38.3846 23.2791 38.3846 23.3327C38.3846 23.3864 38.3233 23.4303 38.2484 23.4303C38.058 23.4303 37.9934 23.6499 37.9934 24.2976C37.9934 24.763 38.0505 24.9508 38.3357 25.4231C38.524 25.735 38.678 26.0233 38.678 26.0639C38.678 26.1045 38.7387 26.1879 38.8129 26.2494C38.8871 26.3108 38.973 26.4865 39.0037 26.6397C39.0345 26.793 39.122 26.9807 39.1982 27.0567C39.2744 27.1327 39.3663 27.2876 39.4023 27.4008C39.4384 27.5141 39.5322 27.6314 39.6108 27.6614C39.7819 27.7269 40.0472 27.6389 40.0472 27.5168C40.0472 27.4689 40.1101 27.4297 40.187 27.4297C40.2637 27.4297 40.3864 27.3701 40.4594 27.2972C40.5325 27.2243 40.7557 27.1057 40.9555 27.0337C41.1552 26.9616 41.3186 26.8677 41.3186 26.8248C41.3186 26.782 41.4066 26.7469 41.5142 26.7469C41.6229 26.7469 41.7098 26.6818 41.7098 26.6005C41.7098 26.5095 41.8021 26.4542 41.9543 26.4542C42.0888 26.4542 42.1988 26.4093 42.1988 26.3546C42.1988 26.2998 42.3088 26.205 42.4433 26.1438C42.5778 26.0828 42.6878 25.979 42.6878 25.9132C42.6878 25.8475 42.7535 25.668 42.8339 25.5143C43.025 25.1487 43.0254 24.6117 42.8345 24.5386C42.5173 24.4171 42.7196 23.4303 43.0616 23.4303C43.1134 23.4303 43.1812 23.3644 43.2122 23.2839C43.2506 23.184 43.4074 23.1376 43.7072 23.1376C44.142 23.1376 44.255 23.2076 44.7171 23.7629C44.8577 23.9318 44.8818 24.3082 44.7521 24.3082C44.7042 24.3082 44.6373 24.4179 44.6036 24.5521C44.5698 24.6862 44.499 24.7959 44.4463 24.7959C44.3935 24.7959 44.3504 24.8618 44.3504 24.9422C44.3504 25.052 44.233 25.0886 43.8809 25.0886C43.3312 25.0886 43.1768 25.208 43.1768 25.633C43.1768 25.8785 43.0829 26.0271 42.7267 26.3451C42.4792 26.566 42.2151 26.7469 42.1399 26.7469C42.0647 26.7469 42.0032 26.7907 42.0032 26.8444C42.0032 26.8981 41.9178 26.9419 41.8134 26.9419C41.7089 26.9419 41.5963 26.9858 41.5631 27.0395C41.5298 27.0931 41.3953 27.137 41.2639 27.137C41.1169 27.137 41.0252 27.1932 41.0252 27.2834C41.0252 27.3646 40.9383 27.4297 40.8296 27.4297C40.722 27.4297 40.634 27.4651 40.634 27.5085C40.634 27.5518 40.458 27.6647 40.2428 27.7594C39.8614 27.9273 39.72 28.2149 39.9494 28.3564C40.0032 28.3895 40.0472 28.5018 40.0472 28.606C40.0472 28.7102 40.1132 28.7953 40.1939 28.7953C40.2852 28.7953 40.3406 28.8874 40.3406 29.0392C40.3406 29.2528 40.3829 29.2831 40.6829 29.2831C40.8712 29.2831 41.0252 29.2392 41.0252 29.1855C41.0252 29.1319 41.0912 29.088 41.1719 29.088C41.2526 29.088 41.3186 29.0221 41.3186 28.9417C41.3186 28.8612 41.3892 28.7953 41.4756 28.7953C41.6364 28.7953 42.5971 28.3444 42.6868 28.2267C42.7142 28.1907 43.0007 28.0296 43.3235 27.8686C43.6462 27.7077 43.925 27.543 43.9429 27.5028C43.9608 27.4627 44.0598 27.4297 44.1629 27.4297C44.266 27.4297 44.3504 27.3638 44.3504 27.2834C44.3504 27.1923 44.4427 27.137 44.5949 27.137C44.7294 27.137 44.8394 27.0931 44.8394 27.0395C44.8394 26.9858 44.9274 26.9419 45.035 26.9419C45.1426 26.9419 45.231 26.909 45.2315 26.8688C45.232 26.8286 45.4289 26.7095 45.6691 26.6041C45.9093 26.4989 46.1273 26.357 46.1534 26.2889C46.1796 26.2208 46.3788 26.1367 46.5961 26.1021C46.8349 26.064 46.991 25.9862 46.991 25.9052C46.991 25.8316 47.0743 25.7714 47.1761 25.7714C47.2779 25.7714 47.3866 25.7055 47.4176 25.6251C47.4485 25.5446 47.5576 25.4787 47.66 25.4787C47.811 25.4787 47.8548 25.3902 47.8913 25.0111C47.9399 24.5072 48.1981 24.1131 48.4797 24.1131C48.5753 24.1131 48.6536 24.0692 48.6536 24.0155C48.6536 23.9619 48.7609 23.918 48.8923 23.918C49.0236 23.918 49.1582 23.9619 49.1915 24.0155C49.2247 24.0692 49.3214 24.1131 49.4065 24.1131C49.6062 24.1131 49.8201 24.3962 49.824 24.6659C49.8258 24.7821 49.8822 24.8995 49.9494 24.9267C50.0382 24.9626 50.0416 24.9982 49.9617 25.0568C49.9012 25.101 49.8207 25.28 49.7827 25.4544C49.7341 25.6781 49.6585 25.7714 49.526 25.7714C49.4226 25.7714 49.3382 25.8372 49.3382 25.9177C49.3382 26.0194 49.2357 26.064 49.0028 26.064C48.8184 26.064 48.6015 25.9982 48.5208 25.9177C48.3367 25.734 47.7147 25.7242 47.6455 25.9039C47.6175 25.9767 47.464 26.0624 47.3045 26.0942C47.1451 26.126 46.9464 26.22 46.863 26.3031C46.7797 26.3862 46.6615 26.4542 46.6003 26.4542C46.539 26.4542 46.3447 26.564 46.1684 26.6981C45.992 26.8322 45.7749 26.9419 45.6859 26.9419C45.5968 26.9419 45.524 26.9858 45.524 27.0395C45.524 27.0931 45.436 27.137 45.3284 27.137C45.2197 27.137 45.1328 27.2021 45.1328 27.2834C45.1328 27.3754 45.0397 27.4297 44.8813 27.4297C44.7429 27.4297 44.5685 27.4846 44.4935 27.5516C44.1454 27.863 44.0519 27.9174 43.8655 27.9174C43.7557 27.9174 43.6658 27.9613 43.6658 28.015C43.6658 28.0686 43.5998 28.1125 43.5191 28.1125C43.4384 28.1125 43.3724 28.1555 43.3724 28.2082C43.3724 28.2608 43.2624 28.3314 43.1279 28.3651C42.9934 28.3987 42.8834 28.4654 42.8834 28.5132C42.8834 28.5611 42.7954 28.6002 42.6878 28.6002C42.5802 28.6002 42.4922 28.6441 42.4922 28.6978C42.4922 28.7514 42.3869 28.7953 42.2582 28.7953C42.1295 28.7953 41.9988 28.8612 41.9678 28.9417C41.9369 29.0221 41.8442 29.088 41.7617 29.088C41.6794 29.088 41.612 29.1284 41.612 29.1778C41.612 29.2272 41.48 29.2965 41.3186 29.3318C41.1572 29.3671 41.0252 29.4365 41.0252 29.4859C41.0252 29.5353 40.9537 29.5757 40.8663 29.5757C40.7391 29.5757 40.7201 29.6392 40.7707 29.8927C40.8055 30.067 40.877 30.2244 40.9297 30.2422C40.9822 30.2602 41.0252 30.3809 41.0252 30.5105C41.0252 30.6551 41.0819 30.7463 41.1719 30.7463C41.2631 30.7463 41.3186 30.8383 41.3186 30.9901C41.3186 31.2038 41.3609 31.234 41.6609 31.234C41.8999 31.234 42.0032 31.1899 42.0032 31.0877C42.0032 30.9979 42.0946 30.9414 42.2396 30.9414C42.3695 30.9414 42.493 30.8902 42.5139 30.8277C42.5373 30.7576 42.7437 30.7207 43.0516 30.7316C43.4804 30.7467 43.5789 30.7144 43.7449 30.5039C43.8513 30.369 43.9872 30.2585 44.0466 30.2585C44.1061 30.2585 44.1548 30.1927 44.1548 30.1122C44.1548 29.8705 45.1403 29.9114 45.3556 30.1621C45.4482 30.27 45.524 30.3964 45.524 30.4428C45.524 30.4892 45.59 30.5819 45.6707 30.6487C45.7514 30.7155 45.8174 30.8699 45.8174 30.9916C45.8174 31.1134 45.7514 31.2384 45.6707 31.2693C45.59 31.3001 45.524 31.3926 45.524 31.4748C45.524 31.557 45.48 31.6242 45.4262 31.6242C45.3724 31.6242 45.3284 31.69 45.3284 31.7705C45.3284 31.8829 45.2032 31.9168 44.7887 31.9168C44.2981 31.9168 44.2183 31.8851 43.9085 31.567C43.7212 31.3747 43.568 31.1552 43.568 31.0793C43.568 30.8781 42.6051 30.8859 42.5276 31.0877C42.4966 31.1681 42.3659 31.234 42.2372 31.234C42.1085 31.234 42.0032 31.2779 42.0032 31.3315C42.0032 31.3852 41.9161 31.4291 41.8095 31.4291C41.5695 31.4291 41.4362 31.8674 41.5977 32.1253C41.6593 32.2238 41.7098 32.3708 41.7098 32.452C41.7098 32.5332 41.7758 32.5996 41.8565 32.5996C41.9397 32.5996 42.0032 32.6871 42.0032 32.8017C42.0032 32.9129 42.0583 33.0649 42.1254 33.1398C42.4162 33.4631 42.4922 33.573 42.4922 33.6698C42.4922 33.7933 42.6891 34.15 42.8589 34.3343C42.9262 34.4073 42.9812 34.5297 42.9812 34.6063C42.9812 34.69 43.079 34.7457 43.2257 34.7457C43.3602 34.7457 43.4702 34.7896 43.4702 34.8432C43.4702 34.8969 43.5582 34.9408 43.6658 34.9408C43.7734 34.9408 43.8614 34.9 43.8614 34.8501C43.8614 34.7329 44.142 34.453 44.2595 34.453C44.3095 34.453 44.3504 34.5628 44.3504 34.6969C44.3504 34.9432 44.4835 35.0229 44.5949 34.8432C44.6281 34.7896 44.9167 34.7457 45.2363 34.7457C45.5585 34.7457 45.8174 34.7892 45.8174 34.8432C45.8174 34.8969 45.8785 34.9408 45.9532 34.9408C46.031 34.9408 46.1164 34.7949 46.1532 34.5993C46.1917 34.395 46.2746 34.2579 46.3597 34.2579C46.4571 34.2579 46.502 34.1502 46.502 33.9165C46.502 33.6781 46.5462 33.5751 46.6487 33.5751C46.7294 33.5751 46.7954 33.5093 46.7954 33.4288C46.7954 33.3483 46.837 33.2825 46.8881 33.2825C46.939 33.2825 46.994 33.052 47.0103 32.7704C47.0347 32.3482 47.0785 32.2414 47.2599 32.162C47.381 32.109 47.48 32.0321 47.48 31.9912C47.48 31.9503 47.5449 31.9168 47.6244 31.9168C47.8363 31.9168 48.1646 31.1648 48.1646 30.6791C48.1646 30.3053 48.1896 30.2585 48.3895 30.2585C48.7292 30.2585 48.8492 30.0734 48.8492 29.5493C48.8492 29.0905 48.9996 28.7953 49.2334 28.7953C49.292 28.7953 49.3382 28.6065 49.3382 28.3668C49.3382 28.0759 49.3853 27.9202 49.4848 27.8821C49.5655 27.8513 49.6315 27.7149 49.6315 27.579C49.6315 27.4432 49.7196 27.2443 49.8271 27.137C49.9347 27.0297 50.0227 26.8981 50.0227 26.8444C50.0227 26.7907 50.0665 26.7469 50.1199 26.7469C50.3318 26.7469 51.0007 26.4011 51.0007 26.2917C51.0007 26.2276 51.0997 26.1611 51.2208 26.144C51.4231 26.1153 51.4432 26.055 51.4695 25.3951C51.5008 24.6138 51.4231 24.4761 50.8917 24.3695C50.6136 24.3138 50.5117 24.0327 50.5117 23.3205C50.5117 23.1127 50.4677 22.9425 50.4139 22.9425C50.3602 22.9425 50.3161 22.8609 50.3161 22.7611C50.3161 22.6613 50.2061 22.4972 50.0716 22.3966C49.9372 22.2958 49.8271 22.1664 49.8271 22.1089C49.8271 21.8108 49.38 21.5539 49.0203 21.6453ZM37.5044 22.0566C37.5044 22.1059 37.4809 22.2072 37.4523 22.2819C37.4019 22.4127 37.7001 22.845 37.8408 22.845C38.0065 22.845 38.189 22.542 38.189 22.2666C38.189 21.9893 38.1636 21.9671 37.8467 21.9671C37.6585 21.9671 37.5044 22.0074 37.5044 22.0566ZM22.8345 23.4222C22.8345 23.525 22.7945 23.6237 22.7457 23.6417C22.6968 23.6595 22.6417 23.7619 22.6235 23.8692C22.5993 24.0101 22.6512 24.073 22.8101 24.0955C22.931 24.1126 23.0301 24.0766 23.0301 24.0154C23.0301 23.6324 24.0229 23.4311 24.342 23.7493C24.5684 23.9752 24.5444 24.6512 24.3015 24.8935C24.0493 25.145 23.6645 25.1624 23.7615 24.9179C23.7987 24.8239 23.8532 24.6044 23.8825 24.4301C23.9289 24.1549 23.9083 24.1131 23.7275 24.1131C23.6129 24.1131 23.5191 24.1475 23.5191 24.1896C23.5191 24.3253 22.9592 24.6008 22.6835 24.6008C22.213 24.6008 22.0054 24.0486 22.2635 23.4836C22.4038 23.1763 22.8345 23.1299 22.8345 23.4222ZM57.5778 23.6613C57.7256 23.7881 57.8467 23.9856 57.8467 24.1C57.8467 24.2145 57.8907 24.3082 57.9445 24.3082C57.9983 24.3082 58.0423 24.4838 58.0423 24.6984C58.0423 25.0421 58.0151 25.0886 57.8141 25.0886C57.512 25.0886 57.4441 25.0066 57.574 24.7991C57.6571 24.6665 57.6394 24.5713 57.4949 24.3737C57.3925 24.2338 57.2538 24.1179 57.1866 24.1161C57.1194 24.1145 57.0643 24.0692 57.0643 24.0155C57.0643 23.9619 56.9983 23.918 56.9176 23.918C56.8369 23.918 56.7709 23.9564 56.7709 24.0034C56.7709 24.0503 56.6389 24.115 56.4775 24.1472C56.2034 24.202 56.1841 24.2347 56.1841 24.6472C56.1841 24.9745 56.2221 25.0886 56.3308 25.0886C56.4202 25.0886 56.4775 24.9977 56.4775 24.8561C56.4775 24.7056 56.5466 24.6056 56.6731 24.5725C56.7937 24.5411 56.8687 24.5696 56.8687 24.6468C56.8687 24.7156 56.9347 24.8266 57.0154 24.8935C57.0961 24.9603 57.1621 25.1144 57.1621 25.236C57.1621 25.4113 57.0914 25.4703 56.8198 25.5211C56.6315 25.5563 56.4775 25.627 56.4775 25.6782C56.4775 25.7294 56.3772 25.7714 56.2545 25.7714C56.0775 25.7714 55.9925 25.671 55.8418 25.2837C55.7375 25.0154 55.6178 24.7959 55.5758 24.7959C55.5338 24.7959 55.4995 24.7081 55.4995 24.6008C55.4995 24.4935 55.5426 24.4057 55.5955 24.4057C55.6482 24.4057 55.7212 24.285 55.7578 24.1375C55.9287 23.4471 57.0011 23.1666 57.5778 23.6613ZM43.3226 23.922C43.2489 24.2567 43.3961 24.5033 43.6698 24.5033C44.046 24.5033 44.1548 24.3916 44.1548 24.0051C44.1548 23.6284 44.1518 23.6254 43.7713 23.6254C43.4237 23.6254 43.3819 23.6531 43.3226 23.922ZM48.6723 24.6822C48.4007 24.9171 48.4031 24.9452 48.7197 25.2609C48.887 25.4278 48.9958 25.479 49.0212 25.4029C49.0431 25.3373 49.1234 25.2837 49.1996 25.2837C49.2928 25.2837 49.3382 25.1718 49.3382 24.9422C49.3382 24.7545 49.2978 24.6008 49.2484 24.6008C49.199 24.6008 49.0974 24.5774 49.0226 24.5488C48.9478 24.5202 48.7902 24.5801 48.6723 24.6822ZM22.1912 25.4669C22.0788 25.7293 22.0936 25.9929 22.2233 26.0379C22.2905 26.0612 22.3455 26.0108 22.3455 25.9258C22.3455 25.8409 22.4011 25.7714 22.469 25.7714C22.5369 25.7714 22.6751 25.6616 22.7761 25.5275C22.983 25.2528 23.4454 25.1962 23.668 25.4182C23.8609 25.6106 23.942 26.0114 23.8678 26.4061C23.8117 26.7041 23.7674 26.7469 23.5147 26.7469C23.193 26.7469 23.1464 26.6058 23.382 26.3461C23.7388 25.9528 23.2245 25.8301 22.8133 26.2103C22.6146 26.3941 22.443 26.4542 22.1167 26.4542C21.7234 26.4542 21.6791 26.4299 21.6329 26.1895C21.5549 25.7823 21.6647 25.2979 21.8441 25.2577C22.1062 25.1991 22.2649 25.2948 22.1912 25.4669ZM58.4465 26.9569C58.6348 27.1734 58.6919 27.7652 58.5465 27.9939C58.4484 28.1479 58.1401 28.045 58.1401 27.8582C58.1401 27.7835 58.1841 27.7223 58.2379 27.7223C58.2917 27.7223 58.3357 27.6565 58.3357 27.576C58.3357 27.4892 58.246 27.4297 58.1151 27.4297C57.9612 27.4297 57.8528 27.5235 57.7568 27.7398C57.4799 28.3638 57.2542 28.4924 56.6976 28.3437C56.5765 28.3113 56.4775 28.2295 56.4775 28.1619C56.4775 28.0942 56.4115 27.9842 56.3308 27.9174C56.2501 27.8506 56.1841 27.6477 56.1841 27.4666C56.1841 27.2387 56.2294 27.137 56.3308 27.137C56.4115 27.137 56.4775 27.0899 56.4775 27.0324C56.4775 26.9747 56.5543 26.9424 56.6482 26.9604C56.7815 26.986 56.812 27.0731 56.7874 27.358C56.7648 27.6185 56.7993 27.7393 56.9076 27.7807C57.1013 27.8549 57.3577 27.6021 57.3577 27.337C57.3577 27.2139 57.4548 27.0888 57.6022 27.0217C57.7367 26.9607 57.8467 26.8738 57.8467 26.8287C57.8467 26.663 58.2695 26.7533 58.4465 26.9569ZM23.8125 27.2421C23.8125 27.2998 23.6805 27.4788 23.5191 27.6398C23.292 27.8663 23.2257 28.0196 23.2257 28.3181C23.2257 28.5711 23.2763 28.7232 23.3724 28.76C23.4531 28.7909 23.5191 28.9213 23.5191 29.0496C23.5191 29.2207 23.465 29.2831 23.3166 29.2831C23.1 29.2831 22.8345 29.072 22.8345 28.8998C22.8345 28.8423 22.7245 28.7953 22.59 28.7953C22.4555 28.7953 22.3455 28.7514 22.3455 28.6978C22.3455 28.6441 22.2984 28.6002 22.2408 28.6002C22.1831 28.6002 22.0746 28.5454 21.9996 28.4783C21.676 28.1888 21.5654 28.1125 21.4694 28.1125C21.4134 28.1125 21.3675 28.051 21.3675 27.9757C21.3675 27.8348 21.8444 27.6248 22.1645 27.6248C22.264 27.6248 22.3455 27.5809 22.3455 27.5272C22.3455 27.4736 22.4789 27.4297 22.6419 27.4297C22.8152 27.4297 22.9618 27.3689 22.9947 27.2834C23.0603 27.1127 23.8125 27.0748 23.8125 27.2421ZM32.638 27.6234C32.4808 27.8745 32.485 27.9972 32.6564 28.1682C32.8157 28.3272 33.2012 28.3568 33.2012 28.2101C33.2012 28.1564 33.2673 28.1125 33.3479 28.1125C33.5515 28.1125 33.5341 27.725 33.3235 27.5655C33.0738 27.3764 32.7769 27.4016 32.638 27.6234ZM22.3455 28.008C22.3455 28.1253 22.6261 28.4051 22.7437 28.4051C22.7936 28.4051 22.8345 28.2954 22.8345 28.1613C22.8345 27.9662 22.7856 27.9174 22.59 27.9174C22.4555 27.9174 22.3455 27.9582 22.3455 28.008ZM38.7514 28.7136C38.5593 28.7836 38.4824 28.8789 38.4824 29.0473C38.4824 29.1769 38.5264 29.2831 38.5802 29.2831C38.634 29.2831 38.678 29.3489 38.678 29.4294C38.678 29.5316 38.7813 29.5757 39.0203 29.5757C39.369 29.5757 39.4174 29.5055 39.378 29.0566C39.3643 28.9 39.1367 28.5872 39.0517 28.6079C39.0345 28.6121 38.8992 28.6597 38.7514 28.7136ZM58.7787 28.8209C58.8092 28.9422 58.8211 29.3702 58.805 29.772C58.7788 30.4277 58.7557 30.5024 58.5802 30.5024C58.4312 30.5024 58.373 30.4211 58.3357 30.161L58.2868 29.8196L57.3822 29.7915C56.5763 29.7665 56.4775 29.7437 56.4775 29.5824C56.4775 29.3341 56.6622 29.2831 57.5613 29.2831H58.3357V28.9417C58.3357 28.6664 58.3733 28.6002 58.5294 28.6002C58.649 28.6002 58.7444 28.6846 58.7787 28.8209ZM36.9421 29.7084C36.7164 29.8199 36.6818 29.9528 36.7819 30.325C36.8488 30.5738 37.1022 30.6988 37.2469 30.5544C37.3025 30.499 37.4272 30.4536 37.524 30.4536C37.6465 30.4536 37.7 30.3796 37.7 30.2098C37.7 30.0756 37.656 29.9659 37.6022 29.9659C37.5484 29.9659 37.5044 29.8781 37.5044 29.7708C37.5044 29.554 37.3004 29.5313 36.9421 29.7084ZM35.3528 30.161C35.3528 30.2146 35.2428 30.2585 35.1083 30.2585C34.9739 30.2585 34.8638 30.2935 34.8638 30.3361C34.8638 30.3787 34.6658 30.4951 34.4237 30.5947C34.1817 30.6942 33.9836 30.813 33.9836 30.8585C33.9836 30.9041 33.8978 30.9414 33.7929 30.9414C33.688 30.9414 33.567 30.9988 33.524 31.069C33.481 31.1393 33.2917 31.2574 33.1034 31.3317C32.9152 31.406 32.7302 31.5123 32.6925 31.568C32.6547 31.6237 32.2587 31.6747 31.8123 31.6815C30.9415 31.6947 30.6585 31.765 30.6585 31.9684C30.6585 32.1728 30.0068 32.3365 29.474 32.266L28.9959 32.2027V33.2304C28.9959 33.8216 29.0357 34.2579 29.0898 34.2579C29.2037 34.2579 29.1766 34.8672 29.0588 34.953C28.9129 35.0591 29.0971 35.4285 29.2958 35.4285C29.3998 35.4285 29.4849 35.3855 29.4849 35.3328C29.4849 35.2802 29.5949 35.2096 29.7294 35.1759C29.8638 35.1423 29.9739 35.0756 29.9739 35.0278C29.9739 34.9799 30.0619 34.9408 30.1695 34.9408C30.277 34.9408 30.3651 34.8969 30.3651 34.8432C30.3651 34.7896 30.4697 34.7457 30.5976 34.7457C30.7255 34.7457 30.8849 34.6798 30.9519 34.5993C31.0189 34.5189 31.1343 34.453 31.2083 34.453C31.2824 34.453 31.3431 34.4091 31.3431 34.3555C31.3431 34.3018 31.41 34.2579 31.4917 34.2579C31.5735 34.2579 31.8146 34.1482 32.0277 34.0141C32.2407 33.8799 32.4598 33.7702 32.5147 33.7702C32.5696 33.7702 32.6144 33.7263 32.6144 33.6727C32.6144 33.619 32.7025 33.5751 32.81 33.5751C32.9187 33.5751 33.0056 33.51 33.0056 33.4288C33.0056 33.3378 33.098 33.2825 33.2501 33.2825C33.3846 33.2825 33.4946 33.2386 33.4946 33.1849C33.4946 33.1313 33.5827 33.0874 33.6902 33.0874C33.7978 33.0874 33.8858 33.047 33.8858 32.9975C33.8858 32.9482 34.0179 32.8788 34.1792 32.8435C34.3406 32.8082 34.4726 32.7388 34.4726 32.6895C34.4726 32.64 34.5607 32.5996 34.6682 32.5996C34.7769 32.5996 34.8638 32.5346 34.8638 32.4533C34.8638 32.3729 34.9498 32.307 35.0548 32.307C35.2965 32.307 35.744 32.1068 35.744 31.9987C35.744 31.9537 35.8132 31.9168 35.8977 31.9168C35.9823 31.9168 36.1143 31.8541 36.1911 31.7774C36.3446 31.6244 36.3824 31.234 36.2436 31.234C36.1957 31.234 36.1288 31.1243 36.095 30.9901C36.0613 30.856 35.9905 30.7463 35.9378 30.7463C35.885 30.7463 35.8404 30.6914 35.8386 30.6243C35.8351 30.4939 35.5066 30.0634 35.4105 30.0634C35.3787 30.0634 35.3528 30.1073 35.3528 30.161ZM38.678 30.1504C38.678 30.1982 38.568 30.265 38.4335 30.2986C38.2757 30.3381 38.189 30.4283 38.189 30.553C38.189 30.6593 38.2321 30.7463 38.285 30.7463C38.3377 30.7463 38.4085 30.856 38.4422 30.9901C38.5165 31.2855 38.7675 31.307 38.9986 31.0378C39.1964 30.8073 39.2083 30.6507 39.0535 30.3119C38.9465 30.0775 38.678 29.9621 38.678 30.1504ZM23.5191 30.4095C23.5191 30.4925 23.4091 30.6622 23.2746 30.7865C23.0242 31.0179 22.9534 31.234 23.1279 31.234C23.1817 31.234 23.2257 31.3406 23.2257 31.4709C23.2257 31.6012 23.2917 31.7736 23.3724 31.8541C23.5752 32.0564 23.5563 32.307 23.3381 32.307C23.0705 32.307 22.5411 32.1063 22.5411 32.0048C22.5411 31.9564 22.4365 31.9168 22.3085 31.9168C22.1807 31.9168 22.0213 31.851 21.9543 31.7705C21.8873 31.69 21.7279 31.6242 21.6001 31.6242C21.2734 31.6242 21.2831 31.2763 21.612 31.1939C21.7465 31.1602 21.8565 31.0896 21.8565 31.037C21.8565 30.9844 21.9225 30.9414 22.0032 30.9414C22.0839 30.9414 22.1499 30.9011 22.1499 30.8519C22.1499 30.8026 22.348 30.687 22.59 30.5948C22.8321 30.5026 23.0301 30.3891 23.0301 30.3428C23.0301 30.2965 23.1401 30.2585 23.2746 30.2585C23.4301 30.2585 23.5191 30.3134 23.5191 30.4095ZM44.277 30.6971C44.0097 30.9999 44.2378 31.4291 44.6662 31.4291C44.9582 31.4291 45.1328 31.2589 45.1328 30.974C45.1328 30.6032 44.5317 30.4087 44.277 30.6971ZM29.6805 30.8438C29.6805 30.8975 29.6145 30.9414 29.5338 30.9414C29.3832 30.9414 29.3411 31.196 29.4464 31.4699C29.5668 31.7829 30.3651 31.584 30.3651 31.2409C30.3651 31.0857 29.996 30.7463 29.8272 30.7463C29.7465 30.7463 29.6805 30.7902 29.6805 30.8438ZM39.9494 30.8438C39.9494 30.8975 39.8834 30.9414 39.8027 30.9414C39.583 30.9414 39.6174 31.4881 39.8516 31.7217C40.0038 31.8735 40.0472 31.8843 40.0472 31.7705C40.0472 31.6812 40.1385 31.6242 40.2812 31.6242C40.4099 31.6242 40.5406 31.5583 40.5716 31.4779C40.6384 31.3042 40.5516 31.0389 40.4279 31.0389C40.3799 31.0389 40.3406 30.9731 40.3406 30.8926C40.3406 30.8113 40.2537 30.7463 40.145 30.7463C40.0374 30.7463 39.9494 30.7902 39.9494 30.8438ZM58.2926 31.0846C58.3969 31.1634 58.5595 31.2292 58.6535 31.2309C58.8436 31.2344 58.8504 31.2488 58.7653 31.4699C58.6974 31.6464 57.8038 31.694 57.7 31.5266C57.6668 31.473 57.5322 31.4291 57.4008 31.4291C57.2695 31.4291 57.1621 31.473 57.1621 31.5266C57.1621 31.5803 57.0933 31.6242 57.0092 31.6242C56.8956 31.6242 56.8642 31.7057 56.887 31.9412C56.917 32.2519 56.9293 32.2595 57.5008 32.3207C57.8216 32.3551 58.1003 32.4319 58.1202 32.4914C58.1401 32.551 58.2674 32.5996 58.4032 32.5996C58.5881 32.5996 58.6352 32.6384 58.5907 32.754C58.558 32.8388 58.5313 32.9535 58.5313 33.0089C58.5313 33.0711 58.4099 33.084 58.2134 33.0427C58.0386 33.0059 57.6756 32.9525 57.4066 32.9238C57.1377 32.8952 56.8824 32.8105 56.8394 32.7357C56.7963 32.6609 56.7023 32.5996 56.6303 32.5996C56.558 32.5996 56.4705 32.4466 56.4351 32.2582C56.353 31.822 56.4619 31.234 56.6246 31.234C56.6935 31.234 56.7753 31.1681 56.8063 31.0877C56.8838 30.8862 58.0266 30.8839 58.2926 31.0846ZM22.6105 31.4291C22.5773 31.5559 22.6076 31.6242 22.697 31.6242C22.7726 31.6242 22.8345 31.5364 22.8345 31.4291C22.8345 31.3218 22.7956 31.234 22.7482 31.234C22.7006 31.234 22.6387 31.3218 22.6105 31.4291ZM38.1992 31.8105C37.991 31.9906 37.9836 32.0292 38.105 32.3028C38.217 32.5552 38.2901 32.5996 38.5926 32.5996C38.988 32.5996 39.0686 32.4664 38.9758 31.9656C38.9075 31.5971 38.5325 31.5221 38.1992 31.8105ZM36.3308 32.0105C36.3308 32.062 36.1543 32.1569 35.9385 32.2214C35.7227 32.2858 35.4972 32.3973 35.4375 32.4691C35.3778 32.5409 35.2449 32.5996 35.1422 32.5996C35.0395 32.5996 34.9331 32.658 34.9056 32.7294C34.8781 32.8007 34.7034 32.9186 34.5174 32.9914C34.3314 33.0643 34.1792 33.1595 34.1792 33.2032C34.1792 33.2468 34.0739 33.2825 33.9452 33.2825C33.8165 33.2825 33.6858 33.3483 33.6548 33.4288C33.6239 33.5093 33.5128 33.5751 33.4081 33.5751C33.3033 33.5751 33.2029 33.6085 33.1849 33.6491C33.1384 33.7549 32.1343 34.2579 31.9698 34.2579C31.894 34.2579 31.8321 34.301 31.8321 34.3536C31.8321 34.4062 31.722 34.4768 31.5876 34.5105C31.4531 34.5441 31.3431 34.6109 31.3431 34.6587C31.3431 34.7066 31.277 34.7457 31.1964 34.7457C31.1157 34.7457 31.0497 34.7896 31.0497 34.8432C31.0497 34.8969 30.9872 34.9408 30.9109 34.9408C30.7364 34.9408 30.1709 35.2572 30.1701 35.3553C30.1698 35.3956 30.0594 35.4285 29.925 35.4285C29.7728 35.4285 29.6805 35.4838 29.6805 35.5748C29.6805 35.6658 29.5881 35.7211 29.436 35.7211C29.2218 35.7211 29.1915 35.7634 29.1915 36.0625V36.404H30.6096C31.3895 36.404 32.0277 36.4431 32.0277 36.491C32.0277 36.5388 32.1378 36.6055 32.2723 36.6391C32.5384 36.7058 33.2012 37.2979 33.2012 37.4689C33.2012 37.5269 33.2673 37.5745 33.3479 37.5745C33.4392 37.5745 33.4946 37.6666 33.4946 37.8184C33.4946 37.9525 33.5387 38.0623 33.5924 38.0623C33.6462 38.0623 33.6902 38.1281 33.6902 38.2086C33.6902 38.289 33.7294 38.3549 33.7772 38.3549C33.8249 38.3549 33.893 38.5085 33.9283 38.6963C33.9636 38.8841 34.0345 39.0377 34.0858 39.0377C34.1372 39.0377 34.1792 39.1708 34.1792 39.3334C34.1792 39.5062 34.2402 39.6525 34.3259 39.6852C34.4066 39.7162 34.4726 39.8436 34.4726 39.9685C34.4726 40.1395 34.5572 40.2261 34.8149 40.3191C35.0032 40.387 35.1572 40.4776 35.1572 40.5205C35.1572 40.6317 36.5034 40.6175 36.5428 40.5058C36.5753 40.4132 36.9183 40.3675 38.4824 40.2473C39.1881 40.1931 39.345 40.1485 39.5207 39.9519C39.6345 39.8247 39.7786 39.7205 39.8409 39.7205C39.9032 39.7205 39.9961 39.6108 40.0472 39.4767C40.0984 39.3426 40.1853 39.2328 40.2404 39.2328C40.2955 39.2328 40.3406 39.1707 40.3406 39.0946C40.3406 39.0186 40.3872 38.941 40.4441 38.922C40.5009 38.9031 40.5634 38.5604 40.583 38.1605C40.6026 37.7578 40.6655 37.4178 40.724 37.3983C40.7821 37.3789 40.8296 37.301 40.8296 37.225C40.8296 37.1489 40.8736 37.0868 40.9274 37.0868C40.9812 37.0868 41.0252 37.0257 41.0252 36.951C41.0252 36.8764 41.1352 36.7877 41.2697 36.7541C41.4621 36.706 41.5142 36.6309 41.5142 36.4021C41.5142 36.2421 41.4702 36.1113 41.4164 36.1113C41.3626 36.1113 41.3186 36.0235 41.3186 35.9162C41.3186 35.8079 41.2534 35.7211 41.1719 35.7211C41.0912 35.7211 41.0252 35.6547 41.0252 35.5734C41.0252 35.368 40.8519 35.0702 40.4629 34.6069C40.3957 34.5268 40.3406 34.3716 40.3406 34.262C40.3406 34.1525 40.2816 34.0628 40.2096 34.0628C40.1375 34.0628 40.0204 33.8873 39.9494 33.6727C39.8784 33.4581 39.7833 33.2825 39.7382 33.2825C39.693 33.2825 39.656 33.1947 39.656 33.0874C39.656 32.9356 39.5908 32.8923 39.3626 32.8923C39.2012 32.8923 39.0692 32.9362 39.0692 32.9898C39.0692 33.0435 38.9812 33.0874 38.8736 33.0874C38.766 33.0874 38.678 33.1313 38.678 33.1849C38.678 33.2386 38.5786 33.2825 38.4571 33.2825C38.1867 33.2825 37.9259 33.6444 38.0832 33.8012C38.1414 33.8593 38.189 34.0261 38.189 34.1718C38.189 34.3175 38.2441 34.4553 38.3113 34.478C38.398 34.5072 38.4276 34.7504 38.4132 35.3152C38.3968 35.9568 38.4206 36.1113 38.5354 36.1113C38.6214 36.1113 38.678 36.2058 38.678 36.3494C38.678 36.4804 38.722 36.6147 38.7758 36.6478C38.8296 36.681 38.8736 36.7933 38.8736 36.8974C38.8736 37.0016 38.8296 37.0868 38.7758 37.0868C38.722 37.0868 38.678 37.1338 38.678 37.1913C38.678 37.3264 38.4292 37.5745 38.2938 37.5745C38.2362 37.5745 38.189 37.6184 38.189 37.6721C38.189 37.8019 37.865 37.7959 37.5671 37.6606C37.2409 37.5124 36.9696 36.9898 37.0508 36.6667C37.1352 36.3311 37.5282 35.9162 37.7614 35.9162C37.9045 35.9162 37.9748 35.7999 38.0679 35.4089C38.1484 35.071 38.1562 34.869 38.0911 34.8041C38.0373 34.7505 37.9934 34.5935 37.9934 34.4552C37.9934 34.2112 37.7041 33.8678 37.4986 33.8678C37.4428 33.8678 37.215 33.9555 36.9923 34.0628C36.7697 34.1701 36.5298 34.2579 36.4591 34.2579C36.3875 34.2579 36.3308 34.3655 36.3308 34.5018C36.3308 34.6359 36.2868 34.7457 36.233 34.7457C36.1792 34.7457 36.1352 34.8993 36.1352 35.0871C36.1352 35.2749 36.1792 35.4285 36.233 35.4285C36.2868 35.4285 36.3308 35.4943 36.3308 35.5748C36.3308 35.6553 36.3748 35.7211 36.4286 35.7211C36.4824 35.7211 36.5264 35.9626 36.5264 36.2576C36.5264 36.5527 36.4824 36.7941 36.4286 36.7941C36.3748 36.7941 36.3308 36.86 36.3308 36.9405C36.3308 37.051 36.2113 37.0868 35.8418 37.0868C35.5729 37.0868 35.3528 37.0503 35.3528 37.0057C35.3528 36.9611 35.2428 36.8659 35.1083 36.7941C34.8993 36.6826 34.8638 36.5952 34.8638 36.1924C34.8638 35.8385 34.9004 35.7211 35.0105 35.7211C35.0912 35.7211 35.1572 35.6553 35.1572 35.5748C35.1572 35.4943 35.2342 35.4271 35.3284 35.4254C35.6259 35.42 35.8418 35.1792 35.8418 34.8528C35.8418 34.5626 35.9105 34.4266 36.2052 34.1326C36.4914 33.8471 36.6314 33.7702 36.8646 33.7702C37.0013 33.7702 37.1132 33.7263 37.1132 33.6727C37.1132 33.619 37.1766 33.5751 37.2542 33.5751C37.4295 33.5751 37.5604 33.38 37.4413 33.2959C37.2972 33.1941 37.0154 32.7145 37.0154 32.5708C37.0154 32.4975 36.9054 32.3788 36.7709 32.307C36.6364 32.2352 36.5264 32.1181 36.5264 32.0467C36.5264 31.9753 36.4824 31.9168 36.4286 31.9168C36.3748 31.9168 36.3308 31.959 36.3308 32.0105ZM40.8296 32.0052C40.8296 32.0538 40.6309 32.1611 40.3879 32.2437C40.145 32.3262 39.8809 32.4589 39.8011 32.5385C39.644 32.6952 39.6074 32.8923 39.7355 32.8923C39.7793 32.8923 39.8756 33.0459 39.9494 33.2337C40.0232 33.4215 40.1415 33.5751 40.2122 33.5751C40.284 33.5751 40.3406 33.6826 40.3406 33.819C40.3406 33.9531 40.3847 34.0628 40.4387 34.0628C40.4927 34.0628 40.6131 34.2384 40.7063 34.453C40.7995 34.6676 40.9094 34.8432 40.9505 34.8432C40.9916 34.8432 41.0252 34.931 41.0252 35.0383C41.0252 35.1467 41.0904 35.2334 41.1719 35.2334C41.2631 35.2334 41.3186 35.3255 41.3186 35.4773C41.3186 35.6114 41.3597 35.7211 41.4098 35.7211C41.46 35.7211 41.529 35.8089 41.5631 35.9162C41.6066 36.0529 41.7111 36.1113 41.9119 36.1113C42.1336 36.1113 42.1988 36.0669 42.1988 35.9162C42.1988 35.8079 42.264 35.7211 42.3455 35.7211C42.4262 35.7211 42.4922 35.6553 42.4922 35.5748C42.4922 35.4943 42.5362 35.4285 42.59 35.4285C42.6438 35.4285 42.6878 35.231 42.6878 34.9895C42.6878 34.7481 42.6438 34.5506 42.59 34.5506C42.5362 34.5506 42.4922 34.4455 42.4922 34.3171C42.4922 34.1888 42.4262 34.0585 42.3455 34.0275C42.2648 33.9967 42.1988 33.8823 42.1988 33.7732C42.1988 33.6643 42.1548 33.5751 42.101 33.5751C42.0472 33.5751 42.0032 33.514 42.0032 33.4392C42.0032 33.3645 41.9482 33.2822 41.8809 33.2564C41.8138 33.2306 41.6988 33.0064 41.6257 32.7583C41.5524 32.5101 41.4535 32.307 41.4056 32.307C41.3577 32.307 41.3186 32.2192 41.3186 32.1119C41.3186 31.9688 41.2534 31.9168 41.0741 31.9168C40.9396 31.9168 40.8296 31.9566 40.8296 32.0052ZM23.8125 32.8435C23.8125 32.9953 23.757 33.0874 23.6658 33.0874C23.5851 33.0874 23.5191 33.1313 23.5191 33.1849C23.5191 33.2413 23.2094 33.2825 22.7856 33.2825C22.3822 33.2825 22.0521 33.3217 22.0521 33.3696C22.0521 33.5679 21.7216 33.5721 21.5385 33.3761C21.3541 33.1788 21.3537 33.1677 21.5274 33.041C21.6262 32.9691 21.9827 32.8807 22.3196 32.8447C22.6566 32.8087 22.9323 32.7388 22.9323 32.6894C22.9323 32.64 23.1304 32.5996 23.3724 32.5996C23.7766 32.5996 23.8125 32.6195 23.8125 32.8435ZM57.225 33.4288C57.3057 33.5093 57.5257 33.5751 57.714 33.5751C57.9023 33.5751 58.1192 33.6378 58.1959 33.7145C58.354 33.872 58.3879 34.5506 58.2379 34.5506C58.1841 34.5506 58.1401 34.6384 58.1401 34.7457C58.1401 34.854 58.0749 34.9408 57.9934 34.9408C57.9127 34.9408 57.8467 34.9878 57.8467 35.0452C57.8467 35.2625 57.5532 35.4285 57.1691 35.4285C56.9501 35.4285 56.7709 35.3846 56.7709 35.3309C56.7709 35.2773 56.7206 35.2334 56.6592 35.2334C56.5978 35.2334 56.4218 35.1021 56.268 34.9416C56.0451 34.709 55.9885 34.5608 55.9885 34.21C55.9885 33.9681 56.0325 33.7702 56.0863 33.7702C56.1401 33.7702 56.1841 33.6605 56.1841 33.5263C56.1841 33.3018 56.2195 33.2825 56.6312 33.2825C56.8982 33.2825 57.1374 33.3414 57.225 33.4288ZM23.8348 33.7458C23.8915 34.0097 23.8041 34.2579 23.6544 34.2579C23.58 34.2579 23.5191 34.3238 23.5191 34.4043C23.5191 34.4847 23.4751 34.5506 23.4213 34.5506C23.3675 34.5506 23.3235 34.5945 23.3235 34.6481C23.3235 34.7018 23.5215 34.7457 23.7636 34.7457C24.1303 34.7457 24.2037 34.7765 24.2037 34.9303C24.2037 35.1237 24.0237 35.2334 23.7067 35.2334C23.6035 35.2334 23.5191 35.2773 23.5191 35.3309C23.5191 35.3846 23.3857 35.4285 23.2227 35.4285C23.0494 35.4285 22.9028 35.4893 22.8699 35.5748C22.8339 35.6684 22.6832 35.7211 22.4525 35.7211C22.1323 35.7211 22.0781 35.6845 21.974 35.3972C21.8091 34.9423 21.828 34.4512 22.0184 34.2413C22.2033 34.0374 22.795 33.9978 22.8617 34.1848C22.8887 34.2606 23.0307 34.1702 23.2366 33.9463C23.6035 33.5472 23.7795 33.4883 23.8348 33.7458ZM56.6452 34.0109C56.4112 34.1815 56.4355 34.343 56.737 34.6218C56.9388 34.8084 57.0622 34.8485 57.2922 34.8026C57.6544 34.7304 57.6357 34.7496 57.7112 34.3727C57.7681 34.0892 57.7521 34.0628 57.523 34.0628C57.3853 34.0628 57.1692 34.0236 57.0428 33.9756C56.8877 33.9168 56.7584 33.9283 56.6452 34.0109ZM22.3455 34.7294C22.3455 34.9692 22.4177 35.0267 22.6446 34.9676C22.9348 34.8919 22.8902 34.5506 22.59 34.5506C22.4181 34.5506 22.3455 34.6036 22.3455 34.7294ZM55.9654 35.6116C56.2251 35.7425 56.814 35.9162 56.9979 35.9162C57.0882 35.9162 57.1621 35.9601 57.1621 36.0138C57.1621 36.0674 57.2721 36.1113 57.4066 36.1113C57.6208 36.1113 57.6511 36.1536 57.6511 36.4527C57.6511 36.6405 57.6119 36.7941 57.5639 36.7941C57.5159 36.7941 57.4464 36.9146 57.4093 37.0618C57.3254 37.3951 57.1809 37.5745 56.996 37.5745C56.89 37.5745 56.8604 37.4692 56.8795 37.1599C56.8935 36.932 56.8639 36.74 56.8135 36.7334C56.6396 36.7106 56.4775 36.8155 56.4775 36.9509C56.4775 37.0308 56.3768 37.0868 56.233 37.0868C55.9861 37.0868 55.9062 36.954 56.0863 36.8429C56.1401 36.8098 56.1841 36.6536 56.1841 36.4958C56.1841 36.2739 56.1398 36.2089 55.9885 36.2089C55.8458 36.2089 55.7929 36.2739 55.7929 36.4493C55.7929 36.6978 55.4774 36.9498 55.3019 36.8417C55.1592 36.7537 55.1919 36.2846 55.3559 36.0683C55.4349 35.9641 55.4995 35.7996 55.4995 35.7025C55.4995 35.5122 55.6932 35.4744 55.9654 35.6116ZM24.4971 35.9162C24.4971 36.0235 24.5337 36.1113 24.5785 36.1113C24.6233 36.1113 24.7067 36.2635 24.7639 36.4494C24.8554 36.747 24.8458 36.7944 24.6825 36.8461C24.5805 36.8784 24.4971 36.9457 24.4971 36.9958C24.4971 37.0458 24.3698 37.0868 24.2142 37.0868C24.0529 37.0868 23.907 37.1497 23.8749 37.2331C23.844 37.3136 23.7073 37.3794 23.571 37.3794C23.4349 37.3794 23.3235 37.4233 23.3235 37.477C23.3235 37.6142 22.8002 37.5988 22.6585 37.4575C22.5939 37.3931 22.5411 37.2421 22.5411 37.1218C22.5411 37.0015 22.4971 36.8761 22.4433 36.8429C22.3895 36.8098 22.3455 36.6975 22.3455 36.5933C22.3455 36.4563 22.4132 36.404 22.59 36.404C22.7325 36.404 22.8345 36.46 22.8345 36.5384C22.8345 36.7158 23.093 36.9247 23.2177 36.8479C23.2787 36.8102 23.2836 36.7022 23.2306 36.5631C23.1176 36.2668 23.2415 36.0864 23.5302 36.1272C23.6991 36.151 23.7719 36.2313 23.7935 36.4178C23.8169 36.6191 23.8651 36.6646 24.0136 36.6259C24.2378 36.5674 24.2548 36.3331 24.0539 36.0683C23.8445 35.7921 23.8751 35.7211 24.2037 35.7211C24.4319 35.7211 24.4971 35.7644 24.4971 35.9162ZM35.5186 35.8873C35.3812 35.9226 35.3486 36.012 35.3719 36.2902C35.3979 36.6025 35.4371 36.6518 35.6809 36.6796C36.0741 36.7245 36.3859 36.3918 36.2115 36.1133C36.1436 36.0049 36.0584 35.9162 36.0219 35.9162C35.9855 35.9162 35.897 35.8994 35.8254 35.8791C35.7537 35.8586 35.6157 35.8623 35.5186 35.8873ZM39.901 36.0869C39.8629 36.1808 39.7877 36.3784 39.7342 36.5259C39.6807 36.6734 39.5971 36.7941 39.5486 36.7941C39.4052 36.7941 39.448 36.4381 39.6071 36.3064C39.6878 36.2396 39.7538 36.1245 39.7538 36.0506C39.7538 35.9767 39.8025 35.9162 39.8621 35.9162C39.9264 35.9162 39.9422 35.9855 39.901 36.0869ZM37.6267 36.5499C37.4569 36.7422 37.4726 37.0868 37.6511 37.0868C37.7318 37.0868 37.7978 37.1307 37.7978 37.1843C37.7978 37.238 37.8638 37.2819 37.9445 37.2819C38.0252 37.2819 38.0912 37.238 38.0912 37.1843C38.0912 37.1307 38.1572 37.0868 38.2379 37.0868C38.3194 37.0868 38.3846 37.0001 38.3846 36.8917C38.3846 36.7844 38.3406 36.6966 38.2868 36.6966C38.233 36.6966 38.189 36.6308 38.189 36.5503C38.189 36.3634 37.7916 36.3631 37.6267 36.5499ZM55.4995 37.465C55.5264 37.4986 55.6804 37.5918 55.8418 37.6723C56.0032 37.7526 56.1934 37.8733 56.2644 37.9403C56.3355 38.0074 56.455 38.0623 56.5299 38.0623C56.6049 38.0623 56.7127 38.149 56.7696 38.2549C56.8591 38.4217 56.8365 38.4555 56.6019 38.5056C56.4528 38.5374 56.2297 38.6043 56.1062 38.6543C55.9826 38.7042 55.8066 38.7458 55.715 38.7465C55.6233 38.7474 55.4863 38.7873 55.4103 38.8353C55.293 38.9093 55.2956 38.9458 55.4277 39.0776C55.5133 39.163 55.6305 39.2328 55.6882 39.2328C55.7458 39.2328 55.7929 39.2767 55.7929 39.3304C55.7929 39.384 55.8809 39.4279 55.9885 39.4279C56.2177 39.4279 56.2419 39.5793 56.0444 39.7762C55.8381 39.9821 55.5995 39.9465 55.3442 39.6718C55.2196 39.5376 55.0522 39.4279 54.9721 39.4279C54.892 39.4279 54.7993 39.384 54.766 39.3304C54.7328 39.2767 54.639 39.2328 54.5577 39.2328C54.4097 39.2328 54.1303 39.0096 54.1303 38.8914C54.1303 38.7328 54.4209 38.5793 54.9372 38.4652C55.2465 38.3968 55.4995 38.3002 55.4995 38.2503C55.4995 38.1063 55.1228 37.7696 54.9616 37.7696C54.8691 37.7696 54.8149 37.6766 54.8149 37.518C54.8149 37.285 54.8385 37.2714 55.1328 37.3351C55.3076 37.373 55.4726 37.4314 55.4995 37.465ZM25.3523 37.6197C25.5703 37.8214 25.6186 37.9618 25.6525 38.4935C25.6832 38.9749 25.6567 39.1632 25.5421 39.2775C25.4592 39.3602 25.363 39.4279 25.3284 39.4279C25.2938 39.4279 25.1995 39.4937 25.1188 39.5742C25.0242 39.6686 24.7824 39.7205 24.4381 39.7205C24.0537 39.7205 23.8884 39.6796 23.8479 39.5742C23.8169 39.4937 23.7303 39.4279 23.6553 39.4279C23.5804 39.4279 23.5191 39.3437 23.5191 39.2409C23.5191 39.1381 23.4809 39.0394 23.4342 39.0214C23.2557 38.953 23.2191 38.5706 23.376 38.4139C23.6094 38.1813 23.8125 38.2197 23.8125 38.4966C23.8125 38.6282 23.8636 38.8477 23.926 38.9844C24.0192 39.1883 24.1073 39.2328 24.4181 39.2328C24.6643 39.2328 24.8163 39.1817 24.8529 39.0865C24.8839 39.006 24.9705 38.9402 25.0455 38.9402C25.1417 38.9402 25.1817 38.8114 25.1817 38.5012C25.1817 38.0951 25.1629 38.0623 24.931 38.0623C24.7272 38.0623 24.6861 38.1033 24.711 38.2817C24.7357 38.459 24.6946 38.5012 24.4971 38.5012C24.318 38.5012 24.2443 38.4425 24.2213 38.2817C24.2042 38.161 24.1491 38.0623 24.0991 38.0623C23.7892 38.0623 24.2067 37.5833 24.5215 37.5776C24.6157 37.5759 24.6927 37.5306 24.6927 37.477C24.6927 37.293 25.0925 37.3795 25.3523 37.6197ZM26.5509 39.6718C26.5509 39.8059 26.5069 39.9156 26.4531 39.9156C26.3993 39.9156 26.3553 39.9815 26.3553 40.062C26.3553 40.1443 26.2679 40.2083 26.1553 40.2083C26.0453 40.2083 25.8452 40.318 25.7107 40.4521C25.5762 40.5863 25.4022 40.696 25.324 40.696C25.2458 40.696 25.1817 40.7399 25.1817 40.7936C25.1817 40.8472 25.1157 40.8911 25.035 40.8911C24.9543 40.8911 24.8883 40.9354 24.8883 40.9894C24.8883 41.0478 24.8087 41.0382 24.6927 40.966C24.5851 40.899 24.4971 40.8089 24.4971 40.7657C24.4971 40.6261 24.9725 40.2083 25.1314 40.2083C25.2162 40.2083 25.311 40.1424 25.3419 40.062C25.3729 39.9815 25.4407 39.9156 25.4925 39.9156C25.6194 39.9156 25.8663 39.6625 25.8663 39.5324C25.8663 39.4749 26.0203 39.4279 26.2086 39.4279C26.5085 39.4279 26.5509 39.4581 26.5509 39.6718ZM53.8157 39.9644C53.9607 40.0985 54.1349 40.2083 54.2027 40.2083C54.2705 40.2083 54.3259 40.2522 54.3259 40.3058C54.3259 40.3595 54.3919 40.4034 54.4726 40.4034C54.5533 40.4034 54.6193 40.4473 54.6193 40.5009C54.6193 40.6751 54.9601 40.6038 55.0856 40.4034C55.2858 40.0836 55.4995 40.1591 55.4995 40.5497C55.4995 40.7665 55.4527 40.8911 55.3711 40.8911C55.3004 40.8911 55.1822 41.0447 55.1083 41.2325C55.0345 41.4203 54.9382 41.5739 54.8944 41.5739C54.8507 41.5739 54.8149 41.6347 54.8149 41.7088C54.8149 41.8537 54.4476 41.9904 54.301 41.9C54.1918 41.8327 54.3019 41.3564 54.4473 41.2668C54.5489 41.2041 54.3278 40.8911 54.1821 40.8911C54.1246 40.8911 53.99 40.7902 53.6938 40.5253C53.6188 40.4583 53.5292 40.4034 53.4946 40.4034C53.4145 40.4034 53.1523 40.144 53.1523 40.0648C53.1523 39.9751 53.3856 39.7285 53.4745 39.7242C53.5171 39.7222 53.6708 39.8303 53.8157 39.9644ZM27.0399 41.0374C27.0399 41.9579 27.1058 42.0336 27.5501 41.6227C27.8705 41.3264 27.9849 41.3168 28.0685 41.5794C28.1143 41.7233 28.0594 41.8474 27.8745 42.0183C27.7327 42.1495 27.5983 42.2568 27.576 42.2568C27.5536 42.2568 27.3814 42.4104 27.1931 42.5982C27.0049 42.7859 26.7834 42.9396 26.7008 42.9396C26.6184 42.9396 26.5509 42.9908 26.5509 43.0534C26.5509 43.1159 26.5197 43.136 26.4814 43.0979C26.4433 43.0599 26.4242 42.7014 26.4392 42.3013C26.4643 41.6274 26.4518 41.5739 26.2685 41.5739C26.1598 41.5739 25.9598 41.6846 25.824 41.82C25.5819 42.0616 25.574 42.0627 25.3919 41.8811C25.2099 41.6996 25.213 41.6906 25.5609 41.3876C26.0824 40.9334 26.1415 40.8911 26.2534 40.8911C26.3094 40.8911 26.3553 40.8414 26.3553 40.7805C26.3553 40.6637 26.8415 40.2086 26.9665 40.2084C27.0068 40.2084 27.0399 40.5814 27.0399 41.0374ZM52.7836 41.0862C52.9202 41.213 52.947 41.2813 52.8606 41.2813C52.6673 41.2813 52.3699 41.5772 52.3699 41.7695C52.3699 41.9142 52.4603 41.929 53.093 41.8885C53.7648 41.8455 53.8207 41.8569 53.8819 42.0495C53.9182 42.1635 53.9889 42.2568 54.0391 42.2568C54.1598 42.2568 54.1554 42.4304 54.031 42.5779C53.619 43.0666 53.435 43.2322 53.3037 43.2322C53.0949 43.2322 53.1142 42.9743 53.3473 42.6478C53.5228 42.402 53.5263 42.3685 53.3825 42.3135C53.2945 42.2799 53.1203 42.3192 52.9953 42.4008C52.73 42.5743 52.1743 42.5998 52.1743 42.4387C52.1743 42.3777 52.0643 42.2262 51.9298 42.1018C51.6537 41.8466 51.6146 41.6218 51.832 41.5386C51.9127 41.5078 51.9787 41.4182 51.9787 41.3397C51.9787 41.2612 52.0668 41.169 52.1743 41.135C52.2819 41.1009 52.3699 41.0322 52.3699 40.9821C52.3699 40.8312 52.5609 40.8792 52.7836 41.0862ZM29.6805 43.72C29.6805 43.8479 29.7457 43.915 29.8699 43.915C30.0335 43.915 30.0518 43.965 30.0039 44.2808C29.9317 44.7566 29.8635 44.8205 29.5531 44.7027C29.3894 44.6407 29.2751 44.6393 29.238 44.6991C29.1143 44.8989 28.9959 44.7777 28.9959 44.4515C28.9959 44.2131 28.9517 44.1101 28.8492 44.1101C28.7685 44.1101 28.7025 44.0662 28.7025 44.0126C28.7025 43.9589 28.8096 43.915 28.9404 43.915C29.0924 43.915 29.2007 43.8446 29.2404 43.72C29.2745 43.6127 29.3875 43.5249 29.4914 43.5249C29.6152 43.5249 29.6805 43.5922 29.6805 43.72ZM49.6315 44.1481C49.6315 44.3395 49.6971 44.3939 49.9983 44.4532C50.2075 44.4944 50.3027 44.5476 50.2201 44.5773C49.8998 44.6921 49.6606 45.1832 49.9249 45.1832C49.9787 45.1832 50.0227 45.227 50.0227 45.2807C50.0227 45.3343 49.9567 45.3782 49.876 45.3782C49.7954 45.3782 49.7293 45.3343 49.7293 45.2807C49.7293 45.227 49.6413 45.1832 49.5338 45.1832C49.4262 45.1832 49.3382 45.227 49.3382 45.2807C49.3382 45.3343 49.2721 45.3782 49.1915 45.3782C49.0898 45.3782 49.0448 45.2764 49.0448 45.0473C49.0448 44.8371 48.9889 44.6949 48.8919 44.6578C48.6751 44.5748 48.815 44.4028 49.0994 44.4028C49.2889 44.4028 49.3382 44.3524 49.3382 44.1589C49.3382 44.0071 49.3936 43.915 49.4848 43.915C49.5743 43.915 49.6315 44.006 49.6315 44.1481ZM31.3431 44.7023C31.3431 44.8374 31.5919 45.0856 31.7273 45.0856C31.7849 45.0856 31.8321 45.1514 31.8321 45.2319C31.8321 45.3124 31.788 45.3782 31.7343 45.3782C31.5921 45.3782 31.6141 45.8418 31.7587 45.8933C31.826 45.9172 31.8456 45.9744 31.8023 46.0205C31.759 46.0665 31.685 46.0419 31.6377 45.9656C31.5895 45.8877 31.399 45.827 31.2029 45.827C30.9041 45.827 30.8541 45.7948 30.8541 45.6026C30.8541 45.4792 30.8101 45.3782 30.7563 45.3782C30.7025 45.3782 30.6585 45.3124 30.6585 45.2319C30.6585 45.1514 30.7236 45.0856 30.8033 45.0856C30.8829 45.0856 30.9757 44.9759 31.0095 44.8417C31.0689 44.6056 31.3431 44.4911 31.3431 44.7023ZM40.3651 45.0595C40.1365 45.08 39.7623 45.08 39.5338 45.0595C39.3051 45.039 39.4922 45.0221 39.9494 45.0221C40.4066 45.0221 40.5936 45.039 40.3651 45.0595ZM47.9201 45.4758C47.9533 45.5294 48.0659 45.5733 48.1703 45.5733C48.2748 45.5733 48.3602 45.6392 48.3602 45.7197C48.3602 45.8001 48.3161 45.866 48.2624 45.866C48.2086 45.866 48.1646 46.0196 48.1646 46.2074C48.1646 46.5873 48.147 46.6004 47.8698 46.4277C47.7152 46.3315 47.636 46.3315 47.4813 46.4277C47.2009 46.6025 47.1866 46.5893 47.1866 46.1586C47.1866 45.944 47.1426 45.7684 47.0888 45.7684C47.035 45.7684 46.991 45.7245 46.991 45.6709C46.991 45.6172 47.101 45.5733 47.2355 45.5733C47.3699 45.5733 47.48 45.5294 47.48 45.4758C47.48 45.4221 47.5653 45.3782 47.6698 45.3782C47.7742 45.3782 47.8868 45.4221 47.9201 45.4758ZM44.3504 46.0599C44.3504 46.3 44.3134 46.3473 44.1411 46.3282C44.026 46.3154 43.9123 46.3599 43.8885 46.4269C43.8646 46.494 43.9148 46.5488 44 46.5488C44.0851 46.5488 44.1548 46.5927 44.1548 46.6463C44.1548 46.7 44.2459 46.7439 44.3573 46.7439C44.4688 46.7439 44.6229 46.8066 44.6996 46.8833C44.8577 47.0408 44.8916 47.7194 44.7416 47.7194C44.6878 47.7194 44.6438 47.7852 44.6438 47.8657C44.6438 47.9567 44.5515 48.012 44.3993 48.012C44.2648 48.012 44.1548 48.0559 44.1548 48.1095C44.1548 48.2591 43.8938 48.2254 43.7216 48.0538C43.5415 47.8741 43.5354 47.8183 43.6747 47.6218C43.7528 47.5117 43.7908 47.5056 43.828 47.5974C43.9013 47.7773 44.1257 47.7456 44.1729 47.5487C44.2579 47.1941 44.1515 47.0365 43.8268 47.0365C43.5661 47.0365 43.4939 46.9856 43.3993 46.7359C43.3198 46.5259 43.3152 46.3574 43.3839 46.177C43.5082 45.8511 43.6346 45.7717 44.0325 45.7699C44.3206 45.7685 44.3504 45.7957 44.3504 46.0599ZM35.8418 46.0474C35.8418 46.1472 35.9492 46.3092 36.0805 46.4076C36.2117 46.5059 36.3445 46.6876 36.3757 46.8114C36.478 47.218 36.6988 47.0713 36.7709 46.5488C36.824 46.1638 36.8763 46.0611 37.0188 46.0611C37.1182 46.0611 37.2268 46.1051 37.2601 46.1589C37.333 46.2766 37.0162 47.9121 36.8869 48.0852C36.7318 48.2929 36.5264 48.2235 36.5264 47.9632C36.5264 47.8291 36.4824 47.7194 36.4286 47.7194C36.3748 47.7194 36.3308 47.6582 36.3308 47.5835C36.3308 47.5088 36.2648 47.4223 36.1841 47.3914C36.1034 47.3606 36.0374 47.2681 36.0374 47.1859C36.0374 47.1037 35.9545 47.0365 35.8533 47.0365C35.6656 47.0365 35.5522 47.2824 35.5498 47.695C35.549 47.8157 35.53 47.9145 35.5076 47.9145C35.4851 47.9145 35.397 47.9411 35.312 47.9737C35.1834 48.0228 35.1572 47.9494 35.1572 47.5405C35.1572 47.2697 35.2012 47.0209 35.255 46.9878C35.3088 46.9546 35.3528 46.758 35.3528 46.551C35.3528 46.344 35.3795 46.1052 35.4122 46.0203C35.4968 45.8004 35.8418 45.8223 35.8418 46.0474ZM42.5276 46.2074C42.5585 46.2879 42.6543 46.3537 42.7406 46.3537C43.0602 46.3537 43.2115 46.6447 43.2187 47.2734C43.2256 47.8717 43.0725 48.2071 42.7925 48.2071C42.7349 48.2071 42.6878 48.251 42.6878 48.3046C42.6878 48.3583 42.4882 48.4022 42.2443 48.4022C41.7742 48.4022 41.3186 48.1791 41.3186 47.949C41.3186 47.873 41.2526 47.7855 41.1719 47.7547C41.0691 47.7153 41.0252 47.5555 41.0252 47.2212V46.7439H40.5315C40.0718 46.7439 40.0289 46.7648 39.9102 47.0465C39.8366 47.221 39.8091 47.4792 39.8451 47.6562C39.9056 47.9528 39.9267 47.9642 40.4665 47.9925C40.9165 48.016 41.0252 48.0541 41.0252 48.1882C41.0252 48.3994 40.268 48.6615 40.1109 48.5047C40.0543 48.4483 39.9289 48.4022 39.832 48.4022C39.7352 48.4022 39.656 48.3583 39.656 48.3046C39.656 48.251 39.59 48.2071 39.5093 48.2071C39.4181 48.2071 39.3626 48.115 39.3626 47.9632C39.3626 47.8291 39.3186 47.7194 39.2648 47.7194C39.211 47.7194 39.167 47.5657 39.167 47.3779C39.167 47.1902 39.211 47.0365 39.2648 47.0365C39.3186 47.0365 39.3626 46.9268 39.3626 46.7927C39.3626 46.6409 39.4181 46.5488 39.5093 46.5488C39.59 46.5488 39.656 46.5049 39.656 46.4513C39.656 46.3971 39.9165 46.3537 40.242 46.3537C40.722 46.3537 40.85 46.389 40.9501 46.5488C41.0915 46.7746 41.3186 46.8088 41.3186 46.6041C41.3186 46.5272 41.4066 46.4365 41.5142 46.4025C41.6218 46.3684 41.7098 46.3029 41.7098 46.2567C41.7098 46.0553 42.4518 46.0105 42.5276 46.2074ZM38.4335 46.5488C38.4676 46.6561 38.5366 46.7439 38.5868 46.7439C38.6369 46.7439 38.678 46.8734 38.678 47.0317C38.678 47.19 38.7381 47.3545 38.8115 47.3975C38.8849 47.4404 38.9756 47.684 39.0131 47.9388C39.0748 48.3583 39.0629 48.4022 38.8878 48.4022C38.7814 48.4022 38.6797 48.3587 38.6617 48.3056C38.6122 48.159 37.5764 48.1381 37.5281 48.2827C37.4612 48.4829 37.211 48.4158 37.211 48.1977C37.211 48.0135 37.4687 47.4516 37.6094 47.3292C37.6402 47.3023 37.6969 47.2146 37.7354 47.1341C37.8038 46.9914 37.962 46.7215 38.1214 46.4756C38.2372 46.2971 38.3628 46.3266 38.4335 46.5488ZM42.0032 46.6463C42.0032 46.7 41.942 46.7439 41.8671 46.7439C41.7024 46.7439 41.58 47.1726 41.6669 47.4454C41.7014 47.5539 41.8009 47.7258 41.8882 47.8273C42.0788 48.0494 42.4922 48.0756 42.4922 47.8657C42.4922 47.7852 42.5362 47.7194 42.59 47.7194C42.6438 47.7194 42.6878 47.5399 42.6878 47.3204C42.6878 47.026 42.6302 46.8735 42.4677 46.7384C42.2265 46.5377 42.0032 46.4934 42.0032 46.6463ZM38.0668 47.6864C38.1341 47.7135 38.2441 47.7135 38.3113 47.6864C38.3786 47.6594 38.3235 47.6372 38.189 47.6372C38.0545 47.6372 37.9996 47.6594 38.0668 47.6864Z" fill="white"/>
</g>
<path d="M70.864 18.408H72.484V22.092H72.58L75.724 18.408H77.68V18.504L74.572 22.056L78.004 26.904V27H76.024L73.468 23.34L72.484 24.48V27H70.864V18.408ZM78.4593 18.408H80.1753L81.5073 23.424L81.6993 24.348H81.7953L82.0473 23.424L83.2833 19.56H84.7953L86.0433 23.424L86.2833 24.336H86.3793L86.5593 23.424L87.8073 18.408H89.5233L87.2433 27H85.6833L84.3393 22.86L84.0873 21.912H83.9913L83.7393 22.86L82.3953 27H80.8353L78.4593 18.408ZM92.7895 18.408H94.6375L97.8655 27H96.0775L95.3695 24.948H92.0575L91.3495 27H89.5615L92.7895 18.408ZM94.8415 23.46L94.0735 21.312L93.7615 20.268H93.6655L93.3535 21.312L92.5855 23.46H94.8415ZM101.739 27.192C101.371 27.192 101.019 27.14 100.683 27.036C100.347 26.932 100.039 26.776 99.7593 26.568C99.4793 26.36 99.2353 26.108 99.0273 25.812C98.8193 25.508 98.6553 25.156 98.5353 24.756L100.059 24.156C100.171 24.588 100.367 24.948 100.647 25.236C100.927 25.516 101.295 25.656 101.751 25.656C101.919 25.656 102.079 25.636 102.231 25.596C102.391 25.548 102.531 25.484 102.651 25.404C102.779 25.316 102.879 25.208 102.951 25.08C103.023 24.952 103.059 24.804 103.059 24.636C103.059 24.476 103.031 24.332 102.975 24.204C102.919 24.076 102.823 23.956 102.687 23.844C102.559 23.732 102.387 23.624 102.171 23.52C101.963 23.416 101.703 23.308 101.391 23.196L100.863 23.004C100.631 22.924 100.395 22.816 100.155 22.68C99.9233 22.544 99.7113 22.38 99.5193 22.188C99.3273 21.996 99.1673 21.772 99.0393 21.516C98.9193 21.252 98.8593 20.956 98.8593 20.628C98.8593 20.292 98.9233 19.98 99.0513 19.692C99.1873 19.396 99.3753 19.14 99.6153 18.924C99.8633 18.7 100.155 18.528 100.491 18.408C100.835 18.28 101.215 18.216 101.631 18.216C102.063 18.216 102.435 18.276 102.747 18.396C103.067 18.508 103.335 18.656 103.551 18.84C103.775 19.016 103.955 19.212 104.091 19.428C104.227 19.644 104.327 19.848 104.391 20.04L102.963 20.64C102.883 20.4 102.735 20.184 102.519 19.992C102.311 19.8 102.023 19.704 101.655 19.704C101.303 19.704 101.011 19.788 100.779 19.956C100.547 20.116 100.431 20.328 100.431 20.592C100.431 20.848 100.543 21.068 100.767 21.252C100.991 21.428 101.347 21.6 101.835 21.768L102.375 21.948C102.719 22.068 103.031 22.208 103.311 22.368C103.599 22.52 103.843 22.704 104.043 22.92C104.251 23.136 104.407 23.384 104.511 23.664C104.623 23.936 104.679 24.252 104.679 24.612C104.679 25.06 104.587 25.448 104.403 25.776C104.227 26.096 103.999 26.36 103.719 26.568C103.439 26.776 103.123 26.932 102.771 27.036C102.419 27.14 102.075 27.192 101.739 27.192ZM109.398 27.192C108.894 27.192 108.434 27.112 108.018 26.952C107.61 26.784 107.262 26.544 106.974 26.232C106.686 25.92 106.462 25.544 106.302 25.104C106.142 24.656 106.062 24.148 106.062 23.58V18.408H107.682V23.676C107.682 23.964 107.718 24.228 107.79 24.468C107.862 24.708 107.97 24.916 108.114 25.092C108.258 25.268 108.438 25.408 108.654 25.512C108.87 25.608 109.118 25.656 109.398 25.656C109.686 25.656 109.938 25.608 110.154 25.512C110.37 25.408 110.55 25.268 110.694 25.092C110.838 24.916 110.946 24.708 111.018 24.468C111.09 24.228 111.126 23.964 111.126 23.676V18.408H112.746V23.58C112.746 24.116 112.666 24.608 112.506 25.056C112.354 25.496 112.13 25.876 111.834 26.196C111.546 26.508 111.194 26.752 110.778 26.928C110.37 27.104 109.91 27.192 109.398 27.192ZM70.864 33.408H72.748L76.204 39.168H76.3L76.204 37.512V33.408H77.812V42H76.108L72.46 35.916H72.364L72.46 37.572V42H70.864V33.408ZM82.2839 33.408H84.1319L87.3599 42H85.5719L84.8639 39.948H81.5519L80.8439 42H79.0559L82.2839 33.408ZM84.3359 38.46L83.5679 36.312L83.2559 35.268H83.1599L82.8479 36.312L82.0799 38.46H84.3359ZM95.8833 40.62C95.4593 41.132 94.9593 41.524 94.3833 41.796C93.8073 42.06 93.1633 42.192 92.4513 42.192C91.8113 42.192 91.2153 42.076 90.6633 41.844C90.1193 41.612 89.6473 41.296 89.2473 40.896C88.8473 40.496 88.5313 40.024 88.2993 39.48C88.0673 38.928 87.9513 38.336 87.9513 37.704C87.9513 37.072 88.0673 36.484 88.2993 35.94C88.5313 35.388 88.8473 34.912 89.2473 34.512C89.6473 34.112 90.1193 33.796 90.6633 33.564C91.2153 33.332 91.8113 33.216 92.4513 33.216C93.1393 33.216 93.7433 33.336 94.2633 33.576C94.7913 33.816 95.2593 34.164 95.6673 34.62L94.5273 35.724C94.2713 35.428 93.9753 35.192 93.6393 35.016C93.3113 34.84 92.9193 34.752 92.4633 34.752C92.0633 34.752 91.6873 34.824 91.3353 34.968C90.9833 35.104 90.6753 35.3 90.4113 35.556C90.1553 35.812 89.9513 36.124 89.7993 36.492C89.6473 36.852 89.5713 37.256 89.5713 37.704C89.5713 38.152 89.6473 38.56 89.7993 38.928C89.9513 39.288 90.1553 39.596 90.4113 39.852C90.6753 40.108 90.9833 40.308 91.3353 40.452C91.6873 40.588 92.0633 40.656 92.4633 40.656C92.9433 40.656 93.3673 40.56 93.7353 40.368C94.1113 40.168 94.4433 39.888 94.7313 39.528L95.8833 40.62ZM101.375 42.192C100.735 42.192 100.139 42.076 99.5867 41.844C99.0427 41.612 98.5707 41.296 98.1707 40.896C97.7707 40.488 97.4547 40.012 97.2227 39.468C96.9987 38.916 96.8867 38.328 96.8867 37.704C96.8867 37.08 96.9987 36.496 97.2227 35.952C97.4547 35.4 97.7707 34.924 98.1707 34.524C98.5707 34.116 99.0427 33.796 99.5867 33.564C100.139 33.332 100.735 33.216 101.375 33.216C102.015 33.216 102.607 33.332 103.151 33.564C103.703 33.796 104.179 34.116 104.579 34.524C104.979 34.924 105.291 35.4 105.515 35.952C105.747 36.496 105.863 37.08 105.863 37.704C105.863 38.328 105.747 38.916 105.515 39.468C105.291 40.012 104.979 40.488 104.579 40.896C104.179 41.296 103.703 41.612 103.151 41.844C102.607 42.076 102.015 42.192 101.375 42.192ZM101.375 40.656C101.775 40.656 102.147 40.584 102.491 40.44C102.843 40.296 103.147 40.096 103.403 39.84C103.667 39.584 103.871 39.276 104.015 38.916C104.167 38.548 104.243 38.144 104.243 37.704C104.243 37.264 104.167 36.864 104.015 36.504C103.871 36.136 103.667 35.824 103.403 35.568C103.147 35.312 102.843 35.112 102.491 34.968C102.147 34.824 101.775 34.752 101.375 34.752C100.975 34.752 100.599 34.824 100.247 34.968C99.9027 35.112 99.5987 35.312 99.3347 35.568C99.0787 35.824 98.8747 36.136 98.7227 36.504C98.5787 36.864 98.5067 37.264 98.5067 37.704C98.5067 38.144 98.5787 38.548 98.7227 38.916C98.8747 39.276 99.0787 39.584 99.3347 39.84C99.5987 40.096 99.9027 40.296 100.247 40.44C100.599 40.584 100.975 40.656 101.375 40.656ZM110.042 42.192C109.674 42.192 109.322 42.14 108.986 42.036C108.65 41.932 108.342 41.776 108.062 41.568C107.782 41.36 107.538 41.108 107.33 40.812C107.122 40.508 106.958 40.156 106.838 39.756L108.362 39.156C108.474 39.588 108.67 39.948 108.95 40.236C109.23 40.516 109.598 40.656 110.054 40.656C110.222 40.656 110.382 40.636 110.534 40.596C110.694 40.548 110.834 40.484 110.954 40.404C111.082 40.316 111.182 40.208 111.254 40.08C111.326 39.952 111.362 39.804 111.362 39.636C111.362 39.476 111.334 39.332 111.278 39.204C111.222 39.076 111.126 38.956 110.99 38.844C110.862 38.732 110.69 38.624 110.474 38.52C110.266 38.416 110.006 38.308 109.694 38.196L109.166 38.004C108.934 37.924 108.698 37.816 108.458 37.68C108.226 37.544 108.014 37.38 107.822 37.188C107.63 36.996 107.47 36.772 107.342 36.516C107.222 36.252 107.162 35.956 107.162 35.628C107.162 35.292 107.226 34.98 107.354 34.692C107.49 34.396 107.678 34.14 107.918 33.924C108.166 33.7 108.458 33.528 108.794 33.408C109.138 33.28 109.518 33.216 109.934 33.216C110.366 33.216 110.738 33.276 111.05 33.396C111.37 33.508 111.638 33.656 111.854 33.84C112.078 34.016 112.258 34.212 112.394 34.428C112.53 34.644 112.63 34.848 112.694 35.04L111.266 35.64C111.186 35.4 111.038 35.184 110.822 34.992C110.614 34.8 110.326 34.704 109.958 34.704C109.606 34.704 109.314 34.788 109.082 34.956C108.85 35.116 108.734 35.328 108.734 35.592C108.734 35.848 108.846 36.068 109.07 36.252C109.294 36.428 109.65 36.6 110.138 36.768L110.678 36.948C111.022 37.068 111.334 37.208 111.614 37.368C111.902 37.52 112.146 37.704 112.346 37.92C112.554 38.136 112.71 38.384 112.814 38.664C112.926 38.936 112.982 39.252 112.982 39.612C112.982 40.06 112.89 40.448 112.706 40.776C112.53 41.096 112.302 41.36 112.022 41.568C111.742 41.776 111.426 41.932 111.074 42.036C110.722 42.14 110.378 42.192 110.042 42.192Z" fill="white"/>
<defs>
<filter id="filter0_ddd" x="0" y="0" width="80" height="80" filterUnits="userSpaceOnUse" color-interpolation-filters="sRGB">
<feFlood flood-opacity="0" result="BackgroundImageFix"/>
<feColorMatrix in="SourceAlpha" type="matrix" values="0 0 0 0 0 0 0 0 0 0 0 0 0 0 0 0 0 0 127 0" result="hardAlpha"/>
<feOffset/>
<feGaussianBlur stdDeviation="0.5"/>
<feColorMatrix type="matrix" values="0 0 0 0 0 0 0 0 0 0 0 0 0 0 0 0 0 0 0.04 0"/>
<feBlend mode="normal" in2="BackgroundImageFix" result="effect1_dropShadow"/>
<feColorMatrix in="SourceAlpha" type="matrix" values="0 0 0 0 0 0 0 0 0 0 0 0 0 0 0 0 0 0 127 0" result="hardAlpha"/>
<feOffset dy="2"/>
<feGaussianBlur stdDeviation="3"/>
<feColorMatrix type="matrix" values="0 0 0 0 0 0 0 0 0 0 0 0 0 0 0 0 0 0 0.04 0"/>
<feBlend mode="normal" in2="effect1_dropShadow" result="effect2_dropShadow"/>
<feColorMatrix in="SourceAlpha" type="matrix" values="0 0 0 0 0 0 0 0 0 0 0 0 0 0 0 0 0 0 127 0" result="hardAlpha"/>
<feOffset dy="10"/>
<feGaussianBlur stdDeviation="10"/>
<feColorMatrix type="matrix" values="0 0 0 0 0 0 0 0 0 0 0 0 0 0 0 0 0 0 0.04 0"/>
<feBlend mode="normal" in2="effect2_dropShadow" result="effect3_dropShadow"/>
<feBlend mode="normal" in="SourceGraphic" in2="effect3_dropShadow" result="shape"/>
</filter>
</defs>
</svg>
